<svg data-name="Layer 1" xmlns="http://www.w3.org/2000/svg" width="479.77" height="238.36" viewBox="0 0 479.77 238.36"><defs><linearGradient id="a" x1="13.11" y1="165" x2="492.89" y2="165" gradientUnits="userSpaceOnUse"><stop offset="0" stop-color="#b68236"/><stop offset=".27" stop-color="#fce78a"/><stop offset=".44" stop-color="#ebc767"/><stop offset=".62" stop-color="#f7e47d"/><stop offset=".76" stop-color="#e9cb6b"/><stop offset="1" stop-color="#c08c40"/></linearGradient></defs><filter id="b" x="-100%" y="-100%" height="400%" width="400%"><feGaussianBlur in="SourceAlpha" stdDeviation="2"/><feOffset dy="8"/><feComponentTransfer><feFuncA type="linear"/></feComponentTransfer><feMerge><feMergeNode/><feMergeNode in="SourceGraphic"/></feMerge></filter><title>map</title><path d="M340.87 51.59c-1-.22-2.61-1.13-3.61-.3a1.57 1.57 0 0 1 0-.68 3.74 3.74 0 0 0-1.67.09c-.24.67.06 1-.19 1.67 1.69-.23 4.1 0 5.47-.78zm139.8 207.49a5.43 5.43 0 0 1 .5-.88c-.16 0-.37 0-.4-.1a.88.88 0 0 1 .69-.39c-1.86-.25-2.06 2-3.82 2.14-2.58 3.23-8 3.56-11 6.35-.2-.17-.13 0-.4 0a1.83 1.83 0 0 0-.48.78 1.63 1.63 0 0 0-.69.1 4.35 4.35 0 0 1-.1.68 1.59 1.59 0 0 0 1.28-.1c.17.2 0 .13 0 .39h.58c0 .18-.11.21-.09.39 5.07.3 6.23-5 10.74-5 .09-.32-.26-.21-.3-.39 1.84-1.49 4.41-2.67 5.57-4.5-.71-.49-1.36.37-2.06.48zm-174.28-52c.36.1.21-.54 0-.48a1.12 1.12 0 0 1-.88 1c.55.34.13 1 .1 1.56a1.19 1.19 0 0 0-.88.78c-.19-.15-.11-.53-.48-.48a1 1 0 0 0 .1 1.07 1.37 1.37 0 0 0-.59.48 1 1 0 0 1-.4 1.18c0-.18.27-.56 0-.68a3.66 3.66 0 0 0-.61 1.21.22.22 0 0 1-.06.26c0-.08 0-.17.06-.26a.45.45 0 0 0-.26-.23c-.46.34-1.21.81-.89 1.36-.35.06 0-.58-.39-.48s-.07.2-.19.3c-.27-.45-.77.26-1.09.39 0-.12 0-.28-.1-.29a1.87 1.87 0 0 1-1.36.58c.26 1.06-.65 1.55-.87 2.44.48 2.34 1 4.55-.4 6.44-.13.14-.45.07-.59.2a4 4 0 0 0 .2 3.9c-.75 2 .73 3.36 2.15 3.81a18.75 18.75 0 0 1 2.83-1.08c1.55-4.51 3.64-9 4.5-13.88.22-.2.11-.73.58-.68.51-.79-.58-1.88.3-2.54a1 1 0 0 0 .49 1c.68-1.95 0-5.64-1.28-6.84zM409.26 200c.32.51 1.19.77 1.08 1.18a1.37 1.37 0 0 1 .88-.69c0-.53-.46-.51-.69-.78a1 1 0 0 1-1.26 0 3.38 3.38 0 0 1 .1-.39c-.61-.83-2.1.42-2.64-.59a.87.87 0 0 1 .2-.49 1.86 1.86 0 0 0 1.95-.58c-.59 0-1.93-.17-2.34.3a3.92 3.92 0 0 0-2.34-.68c-.06-.24-.09-.5-.39-.49-.57 0-.3.87-.77 1a18.71 18.71 0 0 0-2.75-.29 2.82 2.82 0 0 0-.48-1c-.77.37-1.18-.39-2-.58-.16.54-1.42.1-1.56-.11a6 6 0 0 1-1 1.67c0-.4-.2-.06-.39-.11.51.57 1.55 0 2 .59a1.17 1.17 0 0 0-.29.49c4.5 1.21 8.59 1.42 12.9 2.64 0-.34-.57-.67-.2-1.08zM394 195.19a1.89 1.89 0 0 0 .88.49.62.62 0 0 1 .19-.59 1.91 1.91 0 0 0 .69.79c.57-2.06 0-3.59.69-5.18a1.36 1.36 0 0 1-.69-1.08c-.36-.13-.89-.09-1.26-.2a.7.7 0 0 0 .1-.49.74.74 0 0 1-.59-.39c.22-.32-.18-.87-.1-1.36-.87 0-1.29-.07-1.66-.68a1.63 1.63 0 0 0 .4-.49c-.12 0-.29 0-.3-.1s.09-.24.1-.39a.73.73 0 0 0 .59-.3 1.64 1.64 0 0 0-.69-.88c-.37-.17-.44.45-.59.19-.75-.44-1.36-1.89-2.53-2.24-.24-.45-.3-1.08-1-1.07-.26-.07.08.45-.19.39a2 2 0 0 1-.78-1.18c-.27 0-.2.17-.4 0-.44-1.36-2-1.66-2.83-2.63-.12-2.19-3.4-2-4.88-2.44.26 3 3.57 2.93 4 5.76a4.49 4.49 0 0 1 1.85 1.27c-.26.5.57 1.47.49 2.44 2.77 1.47 2.15 5.41 4.78 7 .9 1.75 2.69 2.59 3.82 4.11.16-.4-.38-.6-.1-.79zm29.41-25.5c-.36 0-.21.58-.79.39-.08.41.09.54-.2.68-1.4-.06-1 1.11-1.36 2 .19 0 .18.29.49.2.28-.73.06-1.36.87-1.56v.6c.41.1.28-.39.59-.39-.2.38.22.24.49.48-.23-.37-.1-.41.1-.78a1.42 1.42 0 0 1 1.07 1c-1.17 1 .87 3.28 1.76 2.15-.06.45-.16.75.3.88a1.34 1.34 0 0 0-.1-2.06 1 1 0 0 1 .29-.59 1.21 1.21 0 0 1 .3.3c.18-.46-.43-.64 0-.78.39.48.37 1.39.78 1.86a6.23 6.23 0 0 0 0-4 3.16 3.16 0 0 1-.48-.2.6.6 0 0 0 .39-.48.76.76 0 0 1-.3-.68c-.65-.13-.76-.8-1.36-1-.06.65.33.84.3 1.46-.5-.09-.55-.12-.69.29a.4.4 0 0 0-.47-.29 1.59 1.59 0 0 1-.1.88 1.37 1.37 0 0 0-.49-.2c-.17.19-.12.6-.3.78a.51.51 0 0 0-.38.1 1.08 1.08 0 0 0-.68-1.08zm-4.21-17.48a.41.41 0 0 1-.2.4c-.89-.14-1.36-.86-2.23-.49-.26 1.51.33 3.36.19 4.5a2.56 2.56 0 0 1-.78-.58c-.12 1.14.58 1.64.78 2.92.19 0 .19-.13.29-.2 0 .44.14.78.59.78.23-.22-.18-.32-.1-.68.32.11.71.14.69.59-.31 0-.28.37-.59.38a1.4 1.4 0 0 0 .3.88.27.27 0 0 1 .19-.3c0 .53.45.12.4.58a1.6 1.6 0 0 0 .68-.09c0-.15 0-.37.1-.4.87-.18 1.3.82 1.86 1.27.19-.41-.4-.8-.4-1.36.49.57 1.21.62 1.36 1.66.82-.06.83.67 1.38.88a1.63 1.63 0 0 0 0-1.07c-.18.27-.45-.37-.59.09.23-.56-.28-.69-.49-1.07a1 1 0 0 1 .69-.1c-.2-.43-.87-.38-1.17-.68-.28.26.11.3.09.58h-.39a.88.88 0 0 0-1.47-.78c0 .28.39.37 0 .48-1.2-.55-.68-1.65-1.46-2.54.13-.24.48-.7.09-.88 0-.25.83-.8.59-.39 1.24-1.26-.3-3.26-.39-4.4zm-310.56-2.34c2-.52 4.35.39 5.77-.78a4.12 4.12 0 0 0-2.44-.88c.31-.18.25-.14.29-.58-2.08.13-2.7-2.39-4.49-2.54.81.06 1.29 1 1.56 1.26-.69-.33-1-1.29-2.54-1.08-.14-.93-1.35-.79-1.86-1.36-2 0-5.46-.16-6.06 2-.3.16-.85.06-.88.48.39.1.3-.29.69-.19a.76.76 0 0 0-.1.29c1.47-.39 2.86-2.32 4.69-1.36a1.83 1.83 0 0 1-.88.1 1.38 1.38 0 0 0 1.56.48c1.17.34 2.23 1.47 3.62 1 0 1.14.73 2 2 1.66.77.77-.76.82-.88 1.56zm109.24-56.08c2.08-.14 3.27-1.25 5-1.47.24-.56.79-2.13.19-2.92a1.54 1.54 0 0 0 1.37-.88 2.21 2.21 0 0 1-.68-1.18c-.69-.23-1.24.35-1.57-.29a3.43 3.43 0 0 0-2.25 1.27 2.58 2.58 0 0 1 .68.2c-.33.29-.92.33-1.27.58 0-.54-.86-.21-1.17-.2a1 1 0 0 1-.3.59 4.43 4.43 0 0 0 .88.2 1.86 1.86 0 0 0-.88.58c.12 0 .06.11 0 .2.65 0 .89.33 1.47.29-.64.21-.8.9-1.37 1.18.19.09.33-.29.4 0-.5 0-.17.32-.49.48.11-.37-1 0-.58.3 0-.16.6-.16.58 0a.8.8 0 0 0-.68.4c.28 0 .27.29.59.1 0 .14-.16.16-.19.29.28.14.49-.27.58 0-.26-.07-.19.21-.3.3zm5.28-10.06c.44 0 .89.74 1.27.48-.16.51-.68.36-.87 1 .11 0 .27 0 .29.1-.17.28-.39 0-.39.3a1.66 1.66 0 0 0 1.27-.49 1.85 1.85 0 0 0-.29.78 1.45 1.45 0 0 0-1.27.68c.31-.11.35-.06.2.2.52 0 .49-.54.88-.68.23.53-.18.63-.2 1.17.67-.09.47-1.08 1-1.07a1.87 1.87 0 0 1 .58.78c-.46.09-.42.68-.88.78 0 .22.33.71.49.49-.27-.39.51-.06.59.09.24-.39 1-.21 1.47-.58a4.16 4.16 0 0 0-.49.78 2.3 2.3 0 0 0 .58.78.23.23 0 0 1 .39-.1c-.21 1.22-1.21 1.66-2.45 1.27-.1.37.24.28.19.58a.77.77 0 0 0-.48.4 1.52 1.52 0 0 0 .78-.2c.49 1.13-.8 1.34-1.66 1.66 0 .34.27.12.1.48.45.27.67-.13 1.17-.09 0 .14.11.16 0 .29a1.6 1.6 0 0 0 .69-.1c.27.86 1.22 0 1.56.1a1.93 1.93 0 0 0-.69.58 2.61 2.61 0 0 0-2 .3c-.14 1-1.34 1-1.76 1.76.4-.37.56.14.88 0a1.44 1.44 0 0 1 2-.3 1.08 1.08 0 0 1 1.75-.58 2.16 2.16 0 0 1 1.76-.1 1 1 0 0 1 .19-.39 5.55 5.55 0 0 0 3.32-.49 1.56 1.56 0 0 1 .1-.58.73.73 0 0 1-.88-.1.83.83 0 0 0 .3-.48 1.46 1.46 0 0 0 1.07-1.66 1.54 1.54 0 0 0-2-.1.29.29 0 0 1-.19-.2c0-.28.46-.12.39-.49a2.78 2.78 0 0 1-.59-1.66c-1.8-.5-1.62-3.72-3.91-3.12a6.75 6.75 0 0 0 1-.49.27.27 0 0 1-.3-.19 4.34 4.34 0 0 0 1.47-1.86c-.68-.55-1.89-.26-2.83-.1.18-.28.4-.33 0-.48.6-.38 1.35-.68 1.46-1.28-1 0-1.93.39-2.54 0-.28.15-.11.74-.58.68.28.44-.44.21 0 .49a2 2 0 0 0-.69.2c-.11.38 0 .77-.1 1a.62.62 0 0 1-.29-.19.49.49 0 0 0-.29-.59c-.1.48-.52.06-.59.59zM132.3 73.47a3.49 3.49 0 0 1 1.56.39 3.28 3.28 0 0 1 1.37-.48c-.05-.31-.34-.38-.39-.68a1.93 1.93 0 0 1-1.27.1c1.49-.72-.56-1.07-.79-1.76h-.68c.28-.28-.18-.32-.2-.59.34 0 .3-.36.3-.68-.56 0-.64.54-1.08.1a8.36 8.36 0 0 0-2.93 2.94c-.72.16-1.51.24-1.76.87a12 12 0 0 1 2-.19c0 .42-.5.41-.49.88 1.81 0 2.82-1.39 4.22-1.56a.39.39 0 0 0-.31.19c.11.19.8-.23.88.2-.25 0-.42 0-.39.3zm72.88-.68a.62.62 0 0 0-.09.48c2.12-.78 4.12 1.63 6 .1 2.22-.41 4.19-.88 5.67-2.24-.33-.07-.05-.34-.09-.69a1.89 1.89 0 0 0-.78-.1c.15-.57-.36.06-.49-.3a.23.23 0 0 0 .3-.29c-.07-.19-.55 0-.58-.2.24-.11.43-.28.68-.39-.79 0-1.34.57-1.47-.2h-.88a1.65 1.65 0 0 1 .1.49 2 2 0 0 0-1.47.39.71.71 0 0 0-.78-.39c-.24.11.24.4-.2.39a1.53 1.53 0 0 0-.29-.39c-.47-.12-.42.3-.88.19a2.47 2.47 0 0 1-.2.49c-.44 0-.27-.72-.88-.59-.25.18.12 1-.39.88-.15 0-.07-.25-.29-.19a2.24 2.24 0 0 0-.59.68.92.92 0 0 0-.2-.68c.28 0 .28-.25.29-.49-.57-.18-1.3-1.12-2-.48a2.86 2.86 0 0 1 .39.39c-.28.23-.38-.34-.88-.19a1 1 0 0 0-.59.68.83.83 0 0 0-.3-.11v.39a.36.36 0 0 0-.58.2c1.2.19 2.24-.37 3 .1a3.74 3.74 0 0 0-.79.2.39.39 0 0 0 .2.3c-.68 0-1.53.19-2.14.29.35.58 1.08 0 1.95.2-.31.48.25.46.39.48-.43.15 0 .32.1.49-.5 0-.85.44-1.18.1zM95.76 61.26a2 2 0 0 1-.2.78c3.84 0 6.19-2.41 10-2.64a25.22 25.22 0 0 0-2.44.68c-.15.36.34.06.3.3-.9.14-1.84.24-2.15 1a.6.6 0 0 1 .78.1c-.22 0-.36 0-.39.19.95.11 2-.2 2.64-.09-1.08.39-2.85.08-3.52.88 0 .15.31.08.2.39 2.13.24 4.61-.61 6.05.4-2.14.23-7.72-.59-6.73 1.46 1 .35 1.87-.09 2.73.3 0 .33-.51.2-.48.58s.3.27-.1.49a30.81 30.81 0 0 0 9.38-1.47c0 .26-.38.14-.39.4a2.39 2.39 0 0 1 1.36.19c-.23 0-.37 0-.39.2 1.38.11 3.16.29 4.39-.39-.31-.4 0-.15.2-.48-.35-.29-.67.12-1.08.09a1.83 1.83 0 0 0-.39-.39 2.4 2.4 0 0 0 1 .19 1.45 1.45 0 0 1 .79-.48c.4.46.53.06 1.17.3a2.11 2.11 0 0 0 .68-.79c-.44-.12-.82.32-.58-.19a1.2 1.2 0 0 1-1.08-.58.55.55 0 0 0-.19.29 1.64 1.64 0 0 1-.79-.88 2.9 2.9 0 0 0 1.07-.68c-.2-.85.61-1.19.78-2a4 4 0 0 1-.68-.58c-2.3-.93-2.61 2.69-4.1 2.25.3-.34.41-.73.78-1.18a1.45 1.45 0 0 0-1.56-.58c.24.46 0 .28.2.67-.19-.09-.33.3-.4 0 .08 0 .19 0 .2-.09a3.34 3.34 0 0 0-1.56.29c.1-.29.59-.18.58-.58-1.26-.76-2.26.15-3.42.1a1.78 1.78 0 0 0 1.27-.78c-1.08-.47-2.81.56-4 .3a29.19 29.19 0 0 0 3.13-.59c-.12-1.2-1.89-1.45-2.93-.88-.86-.74-5.64-1.2-6 .49-.72.4-2.14.56-2.34 1.17a13.56 13.56 0 0 0-3.32 1.47 1.91 1.91 0 0 1 1.56.39zm27.84-2.74c0 .44.5.28.69.49a1.61 1.61 0 0 0-.49.58 6 6 0 0 0-1 .1c-.09-.2-.2-.39-.3-.58a1.41 1.41 0 0 0-1.36.68.67.67 0 0 1 .4.58 1.49 1.49 0 0 0 .58-.1c.37.34 1 .72.68 1.47a3.12 3.12 0 0 0 1.56-.2c.13-.25-.29-.4 0-.48a2.67 2.67 0 0 0 3.42-1.47c-.28.3-.67-.1-.29-.29a4.29 4.29 0 0 1-.78-.2 5.21 5.21 0 0 1 1.56-.3c-.3-.5.69-.19.78-.58s-.57-.09-.68-.3c.25 0 .5 0 .49-.3-.8.1-2.34.11-2.15.59a2.23 2.23 0 0 0-2.25.09c.16.1.4.1.2.3-.15-.36-.75-.14-1.08-.1zM293.88 62a.44.44 0 0 0-.4.1c.46 0 .2.19 0 .3a2.81 2.81 0 0 0 1.56.1c.46.33 2.66.57 3.32 0-2.91-.33-4.57-2.94-1.76-4.3.14-.25-.39-.31-.1-.4.18.21.57-.21.69-.39-.09 0-.43-.27-.2-.3.6.34.31-.42 1.07-.1a.9.9 0 0 1 .69-.39c1.3-1.72 5.42-.82 7.23-2.44-.68-.84-2.36-.57-3.32-.2 0 .19.13.19.2.3-1.29 0-3 .67-4.8.29-.24.13.12.37-.1.38-.87-.08-3 .34-2.83 1-.21-.23-1.25-.07-.67.2-.29.23-.61-.11-1.09 0-.07.42.56.16.69.39a.42.42 0 0 0-.39.19c.2.06.64-.12.68.1h-.88c-.12.32.32.08.2.4a8.1 8.1 0 0 1-1.66 1c.2.19.67.11.88.29-.12 0-.07.11 0 .2a3.3 3.3 0 0 1-.88.2c0 .4-.16.52-.68.58-.07.43.5.21.58.48-.16.18-.24.41-.39.59a1.46 1.46 0 0 0-.77 0c.26 1.8 2.27.37 3.12 1.46zm-159.24-8c-.3 0-.49-.26-.58.1a.72.72 0 0 1 .78.68c.95-.18 1.72 0 2.54-.2.14.29-.14.5.2.68-.69.5-1.5.64-1.57 1.56a6.94 6.94 0 0 0 3.71-.1c0 .24-.46.06-.39.39 1.48 0 4.53.41 6.06-.48 0 .18-.11.21-.09.39 1.55.43 3.22-.2 4.39-.48l-.29-.3c.42 0 .78-.07.78-.48a1.48 1.48 0 0 0-1.28-.2.7.7 0 0 0 .1-.3c-2.17 0-4.48.06-5.66.59-1-.18-1.4-.41-2.15-.1a.35.35 0 0 0-.19-.3c-.35-.07-.52.51-.78.2 0-.24.46-.06.39-.4a.72.72 0 0 1-.68-.39c.5 0 1.26.16 1.36-.29a5.93 5.93 0 0 1-1-.1.9.9 0 0 0 .1-.29 10.87 10.87 0 0 0-2.54 0c.2-.71-3.36-.82-3.23-.2zm247.52.9H382h.16c.14 0-.26 0-.26.17a6.78 6.78 0 0 0 .78.49c-1.47-.18-3.37-1.38-4.3-.39.62 1.15 2.56 1.59 4.62 1.83.14-.22-.24-.37 0-.39 1.46-.14 3.64.65 4.7-.48.06-.28-.47.06-.4-.2-.08-.28.45.06.4-.2-1.8-.4-3.83-.51-5.51-.76zm-266.66-.48a10 10 0 0 0-4.79 1.28 2.16 2.16 0 0 1 1.08.1c-.87 0-1.87-.11-2.25.39a1.76 1.76 0 0 0 1.27 0 1.24 1.24 0 0 0-.1.29.81.81 0 0 0 .88-.19c.29.72 1.49-.3 1.85-.1-.24.53 1.64-.22 2.44.2a24.76 24.76 0 0 0-4 .48c1.82 1.19 4.73-.38 6.84-.48 1.24.53 4.05-.07 4.88-1.18-.45-.5-1.33-.13-1.76.2 0-.3-.45-.22-.58-.58.5-.17.42-.54.88-.88a6.66 6.66 0 0 0-2.84.78c.16.13.62 0 .59.29a2.17 2.17 0 0 0-1.08.3 1 1 0 0 1 .79.3c-.6.3-1.83-.06-2.64.1 0-.2.26-.2.3-.4a2 2 0 0 1-.59-.58 4.27 4.27 0 0 0-1.27.1c0-.17.55-.39.09-.4zm10.36 1.37a13.07 13.07 0 0 1 3-.1c-.68 0-1.31.11-1.37.77.76.14 1.65-.07 2.64 0 0-.53.11 0 .39-.09 0-1 1.43-.28 1.08-1a2.78 2.78 0 0 0 1.27-1.07 1 1 0 0 1-.68-.2 3.81 3.81 0 0 0-.88.29c-.26-.49-2-.44-2.34-.09h.48a1.71 1.71 0 0 1 .1.87.78.78 0 0 1-.49-.68.91.91 0 0 0-1.37.88c-.31-.65-1.33-.16-2-.1.2.44.65 0 .19.49zm6.55-3.52c-.17.19 0 .12 0 .4a3.39 3.39 0 0 0 1.95-.3 1.22 1.22 0 0 0-.19-.49 1.47 1.47 0 0 0 .58-.29 1.56 1.56 0 0 0-1.07-.3.28.28 0 0 0 .29-.2 2.39 2.39 0 0 0-1.37 0v-.39c-.93-.09-2.54-.25-3 .4.17 0 .57-.12.59.1-.24 0-.47 0-.49.2.46.09.81-.43 1.17-.1-.14 0-.36 0-.39.1.15 0 .36 0 .39.09-.62 0-.43 0-.1.2-.67.14-1.49-.39-1.75.2.84.45 2.52-.17 3.42.39zM252.76 50a15.28 15.28 0 0 0 1.85.3c-.11 0-.28 0-.3.1 2.14.29 5.4.91 7.43-.49a9.06 9.06 0 0 0-4.2-.39c.12 0 .28 0 .29-.1-.15-.37-.82-.13-1.08 0 .35 0 .12.39.1.39a11.43 11.43 0 0 0-2.83-.58c-.15.35.33.06.29.3-.36.07-.67-.4-.78 0 .13 0 .54.15.3.19a2.38 2.38 0 0 0-1.46 0 1.47 1.47 0 0 1 .78.2c-.15 0-.37 0-.39.1zm74.43.1c0-.17-.14-.25 0-.3s.61-.29.79 0c-.49 0-.38.2-.1.3a1.29 1.29 0 0 0-.89.4c1.72 0 5 1.4 7.63.58-1.22-.42-1.17-1.56-3-1.37 0 .18.14.26 0 .3-.1-.28-.46 0-.49.1a.55.55 0 0 1 .1-.39 4.33 4.33 0 0 0-1.18-.09c.31-.38-.59-.2-.58-.58.2-.06.64.12.68-.1-1.95-.38-3.82-1.15-5.38 0 .15 0 .5-.12.49.1-.12 0-.06.1 0 .19a.91.91 0 0 0-1 .3 1.44 1.44 0 0 1 .88.1c-.11.29-.88-.09-1 .19a4.28 4.28 0 0 0 3 .3zm-186.69.3c-.24 0-.47 0-.48.2.15 0 .34 0 .29.2a10 10 0 0 0 1.17-.2.91.91 0 0 1-.09.2 4.3 4.3 0 0 1 1.75-.11c-.11 0-.28 0-.29.11s.28 0 .29.09a4.65 4.65 0 0 0-2.44.3 2.06 2.06 0 0 1 .49.78c1.06.51 2.22 0 3 .2 0-.14-.11-.5.1-.49s.14.5.48.49a1.18 1.18 0 0 0 .88-.58.64.64 0 0 0 .59.19 2.29 2.29 0 0 1 .48-.58.65.65 0 0 0-.1.39 17.44 17.44 0 0 1 3.91-.78c.07-.31-.27-.2-.19-.49-.57-.06-.53.39-.59-.1.63 0 1.18 0 1.27.48s-.79 0-.78.4c.43.25 1.43-.07 1.85.2-2 0-4.89-.38-6.05 1a9.15 9.15 0 0 1 2.14.1c-.26 0-.57-.06-.58.19 0 0 .11.09 0 .11-.08.63.88.21 1.17.48a5.39 5.39 0 0 1-2-.1.39.39 0 0 0 0-.49c-.71-.08-2-.23-2.25.4.41 0 0 .15 0 .3.17 0 .49-.1.39.19-1.29.15-2.73.14-3.52.79a.71.71 0 0 0 .1-.3c-.39 0-1-.13-1 .3 1.83.24 4.25.83 6.55 0 1.05.85 1.92-.29 3 .29a2 2 0 0 0-.49.39c1.85-.45 3.58 0 4.39-1.27-.44-.08-.86.37-1.07.2s.5-.23 0-.49a4.1 4.1 0 0 0 2.25-.48c-.13-.07.08-.3-.2-.39a6.42 6.42 0 0 0 5.08-1.23 7.89 7.89 0 0 1-1.28-.3c.61-.23 1.7.49 2.15-.19-.34-.27-1.16.24-1.57-.11.45.09.1-.15.3-.19 1.14.27 1.95-.09 3 0a1.13 1.13 0 0 1 .19-.4c3.53 0 7.2-1.52 10.75-2.14-.2-.06-.64.12-.69-.1a14.44 14.44 0 0 0 4.89-.78c-.31-.33-1.72.08-1.66-.49-2.54.18-4.9-.55-7.53-.1a35.61 35.61 0 0 0-5.47 0 1.21 1.21 0 0 1 .68.3c-.89-.22-2.94-.65-3.32 0a1.5 1.5 0 0 0-1.37-.1.64.64 0 0 1 .29.2 2.78 2.78 0 0 0-2.44.49c-2.84-.66-6.14.21-9.38.58a7.51 7.51 0 0 0 1.56.29c-.23.2-.93-.08-.88.4.78.11 1.78.78 2.84.3a.79.79 0 0 1-.2.19c.88.12 2.64.31 3.22-.19.59.72 2.77-.19 3.82.1-1.17.34-2.87.12-4 .48.21.21.58.27.78.48a.51.51 0 0 1-.29.3c-.63-1-4.29-1.32-4.59-.1-.34-.14-.63.28-.79 0a.69.69 0 0 0 .59-.4c-.52-.17 0-.11 0-.48-.94-.46-1.08.69-1.66.2a.56.56 0 0 0 .39-.3c-.68 0-1.66-.13-1.56-.88a3.86 3.86 0 0 0-2.25 0c.1 0 .23.17.1.2-.39.07-1.57-.14-2 .4.2.06.68-.16.58.19-.89-.31-1.73.36-2.44.2-.13.48.58.14.68.39a10.26 10.26 0 0 1-1.26-.09c.07.3-.27.19-.2.48s.37.16.48.3zm63 12.8c.14-.51.85-.25 1.57-.48-.58-.72.45-.83-.1-1.18 1.54-.31 1.18 2 3 1.46a1.51 1.51 0 0 0 .2-.58c.28.08-.13.24 0 .48a1.1 1.1 0 0 0 1 .1 6.34 6.34 0 0 1 .29-1.46c-.19-.16-.82-.17-.78.2-.41-.49.66-.32.68-.68a1 1 0 0 0-.62.11c-.14.09-.11.06 0 0-.12-.14-.52-.19 0-.19a18.2 18.2 0 0 1-2.64-1.37c-.16-.38.42 0 .39-.29.07-.43-.68 0-.78-.3.69-.54 1.72.1 2.83 0-.21-.41-1-.2-1.46-.39.3-.06.39-.33.68-.39.52 1 2.79.52 4 .39-.2-.2.07-.42.29-.48a3.68 3.68 0 0 0-2.05-.3c.31-.56 1.56.21 2.35-.2 0-.19-.39-.07-.3-.39a1.18 1.18 0 0 0 1.66-.1c-.28-.37-.48-.22-1.08-.2a1.39 1.39 0 0 1 .49-.29c-.06-.31-1-.26-.88-.4.16-.63.8.23 1.36-.1.49-.53-.12-1-.29-1.18.16 0 .38 0 .39-.1a7.37 7.37 0 0 1-2.64-.77c1-.45 3.76.3 4.69-.69-.71-.39-1.73-.1-2.35-.58.58-.35 1.06.24 1.75.1-.58-1.15-2.2-.31-2.93-.2a6.21 6.21 0 0 1 3.78-1.94c0-.32-.64 0-.59-.4a31.85 31.85 0 0 0 4-1.08c0-.43-.86 0-1.07-.29a21.72 21.72 0 0 0 5.5-1.04c-2.46-1-6 .27-7.91 0h.29c-1.3-.17-2.44.68-3.81.78.66-.42 1.77-.38 2-1.18-1.16-.68-2.22.37-3.42.3a1.36 1.36 0 0 0 .39-.39c-1.78 0-3.52 0-5.18.1 2.84-.45 6.65.07 9.18-.68a30.5 30.5 0 0 0-4-.58c.39-.6-2.39-.18-3-.49h-6.74c-2.77 1-6.59.1-9.87.58a3.22 3.22 0 0 0 1.27.4c-.71.08-1.49-.14-2.44 0 .43.63 1.91.24 2.25 1a24.75 24.75 0 0 0-5.57-.88.56.56 0 0 0 .68.58c-1.33.44-1.51-.29-2.83-.39-.48.21.15.5-.49.68-.68 0 .34-.36-.2-.58a58 58 0 0 0-7.52.48 1.49 1.49 0 0 1-.49.78c-2.52-.28-5 .49-7.43 1.08.42.54 1.26.15 2.15.29-2.36 2-7.72.85-10.35 2.35 2 1.23 3.65.81 6.06.78-1.39.52-4.35 0-6 .78a7.27 7.27 0 0 0 2.06.49c-.17.29-.82.1-1.08.29.58.55 1.72.56 2.74.68 0-.31-.48 0-.4-.39a2.59 2.59 0 0 0 1.47-.1c0 .23-.28.11-.29.29a12.15 12.15 0 0 1 7.42.69 1.36 1.36 0 0 1-.68.2 3 3 0 0 0 1.27.87c-.63.12.11.13.29.3-.54.16-.52.59-1.36.58.26.4 1.36-.35 1.07.1.28.35-.4.61.29 1.08-.32 0-.21.44-.68.3a1.52 1.52 0 0 0 .88.2 1.44 1.44 0 0 1-1.37.77.67.67 0 0 0 .69.1c-1 .4-.73.78-1.66 1 .64 1.2 2.07.18 2.92-.09-.85.44.25.36.79.19a3.73 3.73 0 0 0-1.08.58 11 11 0 0 1 1.76.49c-.27.33-.34.39-.09.78a7.12 7.12 0 0 0-3.72-.58c.19.72 2.36 1.24 3.13 1.07.19.2-.52.33-.39.78a.32.32 0 0 0 .49-.29c.24.36-1.43 1.34-1 1.66a16.48 16.48 0 0 0-2.93.4c.23.78-1.4.93-1.66 2 .07.36.71.13 1.07.2-.53.22-1 .53-1.47.78-.07.67.41.74 0 1.36 1-.47.28.41.88.49a7.79 7.79 0 0 0-.48 1.56s.69.13.48.29c-.29 0-.54 1.59.49 1.37-.39.36.21.7-.19 1.17a1.09 1.09 0 0 1 .58 1.47c.72.29.44.48 1.08.68-.54.18-.12.14-.29.68 1.36-.67 2 .22 2.93-.1 0 .21-.14.19-.3.2a1.78 1.78 0 0 0 1.08.3c.25.37-.64-.15-.58.38.18.25 1.22.46 1.46.69.62.08.69-.63 1.26-.3.75-1.76 2.33-2.69 2.84-4.11a.87.87 0 0 0-.68-.19c2.62-.4 2.89-2 4.39-2.93-.34-.71-.45-.65-.87-.68.13-.6 1.15.11 1.66-.48.27-.2-.15-.43 0-.49.77-.18 1.16 0 2.24-.2-.18-.45.85-.84 1.08-1.07.61.12-1.13.69-.78 1.17 3.59-.52 5.33-2.06 8.4-3.8.22-.45-.69-.59-.2-.68a7.09 7.09 0 0 1 .59.68c4.31-.14 8.73-1.76 12-3.13-2.06.11-3.7-.63-5-.29zm237 194.89c.49-.09-.36-.16 0-.48-.42 0-.08.32-.1.48-1.23.71-1.5 3.72-1.36 5a1.3 1.3 0 0 1 1 .19 2.11 2.11 0 0 0 .88-.78c.11.37-.21.33-.3.48.65.36.32-.73.78-.39.08-.82.23-.17.59-.68a.28.28 0 0 1 .2.29.53.53 0 0 1-.2-.2 1 1 0 0 0-.2.49h.49c0-.4.4-.31.29-.78.21-.12.37 0 .48-.3-.16 0-.24.15-.3 0 .46-.17.46-.78 1-.87.06.21-.28.31.1.3.18-1.09 1.36-1.61 1.17-2.75-1.43.69-3.48.92-4.49 0zm23.64-26.67c.43-.51 1.19-1.27.87-1.95a6.13 6.13 0 0 1-.77 1.37c0-.55-.61-.5-.39-1.28-.65-.08-.41-1-.79-1.37a.57.57 0 0 1-.47 0 1.13 1.13 0 0 1-.1-.88c-.38-.17-.16.07-.49.1-.28-.78.7-2-.2-2.34.09.35 0 .25.1.58a.9.9 0 0 1-.58-.77c-.27 0-.34.18-.2-.11-.45-.11 0 .66-.3.69a1.43 1.43 0 0 1-.19-1.66c-.27-.62-.59-1.18-.89-1.76.2-.17.14 0 .4 0 0-.45-.45-1.17-.78-.69-.07-.41-.82-1-.88-.58a7.08 7.08 0 0 0-.29-1c.1.34-.31.16-.48.2a.41.41 0 0 0-.11-.39.83.83 0 0 1-1-.69.86.86 0 0 0 .1-1.07c0 .07-.32.3-.3.1.57-.64.16-1.87.4-2.45-1.12-.49-.51-2.65-.4-3.52-.37-.38-1-.44-1-1.26-.4-.19-.71.44-1.18.48a5.2 5.2 0 0 1-.1-2.93c-.22-.24-.81-1.15-.29-1.56a2.23 2.23 0 0 1-.49-.2 4.12 4.12 0 0 0-.3-2.06c-.4 0-.4.39-.77.39 0 1.36-.85 1.89-1.18 2.93.22 0 .37 0 .39.2-1.52 2.58-.63 7.83-4.19 9-.36-.46-1.29-.35-1.19-1.28-1.34-.35-2.07-1.31-3-2 .26 0 .26-.49 0-.49 0 .27-.14.91-.48.39.14 0 .56-.55.29-.39a.45.45 0 0 1-.48.2A11.44 11.44 0 0 0 441 212a5 5 0 0 1 1.57-2.14c-.17-.25-.41.15-.58-.1 0-.64.25-.71.87-.88 0 .12-.17.22 0 .3.2-.2.29-.49.49-.68a.28.28 0 0 1-.2-.3 1.29 1.29 0 0 0 .79-1c-.32 0-.73-.3-.49-.58a2.91 2.91 0 0 0-.78.29c.37 0-.07.31.29.39-.12.26-.2.31-.48.2a.68.68 0 0 0 0-.59c-.11.07-.38.45-.48.2a1.8 1.8 0 0 0 .58-1 3.53 3.53 0 0 1-1.57 1.08 1.89 1.89 0 0 1-.39-.48c-.48.22-1.41-.09-1.26-.49a1.12 1.12 0 0 1-1.57-.68.38.38 0 0 1-.38.3c-.26-.16.23-.67-.09-.88-.1.75-1 0-1.29.58a.37.37 0 0 1 .4.4 1.51 1.51 0 0 1 .69-.1c.57 1-.58 1.52-1.66 1.46a.87.87 0 0 1-.4-.48c.06.44-.16.22-.39.19.14.5-.46.56-.68.39-.07.74-1.46 1.07-.68 1.76a1.39 1.39 0 0 1-.78.3c0 .83-.8 1-1 1.65a1 1 0 0 1 .49.69c-.28 0-.1.37-.3.39a.82.82 0 0 0-.49-.39c0 .17.12.57-.1.58.06-.68-.63-.6-1.17-.68-.06.14.12.5-.1.48 0-.12 0-.23-.2-.2s0 .53-.3.49a2.56 2.56 0 0 1 .39-.88c-.71-.53-1-1.48-2-1.76-.3.16-.15.76-.58.78a.55.55 0 0 1 .1-.39.77.77 0 0 0-.58.48c0-.26.06-.57-.2-.59-.24.44.06 1-.49 1.28-.21-.37 0-.59-.39-.68.19.83-.62.46-.77.48.24.47-.14.66.3 1.18a3 3 0 0 0-.79-.4c.39.39-.29.28 0 .79-.36-.36-.35.1-.67-.2-.1.61-.51 1 0 1.46-.4-.1-.28.39-.59.58-.16-.34-.41-.31-.69-.1 0-.25 0-.41-.28-.39a1.33 1.33 0 0 0-.1.68c-.15-.11-.25-.11-.3.1.23.06.26.48.57.68-.22.15-.18.21-.47.1a.68.68 0 0 1-.2.68 3.08 3.08 0 0 1-.49-1.76c-.69.69-2.26 1.61-1.56 3-1.55 1.33-2.71 3.92-5.57 3.32-.71.59-2.24 1.38-3.12 1.18a.9.9 0 0 0-.58.2.51.51 0 0 1 .09-.3 22.45 22.45 0 0 0-4.78 3.42 5 5 0 0 0 .18-1l.12-.19a.35.35 0 0 0-.12.19c-1.23 1.86-2.53 4.58-1.15 7.14-.27.24-.08.91-.49 1a6.07 6.07 0 0 0-.2-.88c.09.2-.15.54-.2.3a.88.88 0 0 0-.2-1.07c-.43.43.07 1.19.3 1.55a.52.52 0 0 1-.39.39 5.3 5.3 0 0 0-.53-1.52c0-.18-.1-.36-.14-.52a2 2 0 0 0 .14.52c.9 3.64 1.68 8.61.53 12.17a2.07 2.07 0 0 1-1.17 2 3.89 3.89 0 0 0-.3-.3 3.32 3.32 0 0 0-.38 1.57c1.23.6 2.29 1.72 3.9 1.27 1.87-.92 3.93-2.55 6.84-2.14.07.21-.28.31.1.3s1.32-.5 1.56 0c3.24-3.18 8.49-3.57 13.58-4.6a7.33 7.33 0 0 1 1.37 1.08 1 1 0 0 1 .78-.2.73.73 0 0 0 1.17.3c-.06.27.2.19.2.39s-.26.12-.2.39c.3 0 .49-.39.59 0-.32.46-.61.57-.4 1.18.93-.15.95 1.67.59 2.44 0-.27-.16-.34-.3-.19.06.36.49.36.4.87.26.08.2-.19.39-.19 0 .45.29.09.47.38a1.63 1.63 0 0 1-.19-.78c1.53-1.28 3.13-1.88 4.4-3.42-.36 1.74-1.9 2.28-2.35 3.91h-.68a2.76 2.76 0 0 1-.48.68c.59 0 .92-.4 1.46-.2.45-.55.77-1.25 1.26-1.76.54 1.3-.45 2-1.07 2.64a3.16 3.16 0 0 0 1.17-.2c1.06.61.46 2.37-.1 3 .34.36.24 1.14.59 1.46.74-.2.73.37 1.07.58 1.66.27 3.89 1.08 4.69-.58a2.91 2.91 0 0 1 .78-.3.58.58 0 0 1-.78.68c0 .19.11.22.1.39a.85.85 0 0 1 1.18.68c.34-.18.45-.06.39.4a.66.66 0 0 0 .48-.59c-.21-.06-.31.29-.29-.09s.39.36.58 0c1.17-.39 2-1.49 3.62-1.67a9 9 0 0 0 1.46 0c2.25-.47 2.38-4.67 4.4-4.78 3.19-4.17 8.66-8.14 9.68-13.87-.37-.08-.18.41-.4.48-.49-1 .86-2.13.49-3.33zM457 192.06c-1.9-.34-4-1.8-5.86-2.14a.17.17 0 0 0 .09-.21c-1.88-.07-3-1.14-4.59-1.75a7.18 7.18 0 0 0-1.17.58 1.76 1.76 0 0 1 .1.48c-.5.08-.73.44-1.28.2-.52.9-.81 2.06-2.24 2.06a13.76 13.76 0 0 1-.69-1.86 1.81 1.81 0 0 1-.2.88 10.94 10.94 0 0 1-.39-1.86 7.51 7.51 0 0 0 .29-.78 1 1 0 0 1-.29-1c-1.25.06-1.61-.8-2.84-.78a2.18 2.18 0 0 1-1.66.78c-.14.15.16.73-.3.79.16-.51-.23-.49-.29-.79a1.7 1.7 0 0 1-.78.1c.73 1.54 2.37.84 2.93 2.64.49-.11 2 0 2.55-.2-.39.15 0 .12 0 .4-.46-.09-.11.15-.3.19a2.43 2.43 0 0 1-1-.19c-.27.16-.32.53-.58.68a1.07 1.07 0 0 0-1.26 0c.11 0 .1.15.09.3.86-.22.82.79 1.27.68-.33.14.2.24.1.48h-.3a1.24 1.24 0 0 0 .4 1c.32-.45.69.4.87.1a.58.58 0 0 1-.39-.29 8.68 8.68 0 0 0 .58-1.08c0 .68.81.62 1.07 1.08.06-.54.28.27.49-.1 1.19 1.51 4.21 1.2 5.28 2.83a7.39 7.39 0 0 0 1 2.24.58.58 0 0 1-.39.1c.22.5.24.63.39 1-1-.55-2.06 1-2 1.86a5 5 0 0 1 1.86-.1c.28-.67 1-.34 1.76-.48.66 1.7 2.22 2 4.1 2.14a5.17 5.17 0 0 1 1.26-.68c.06-.77-.55-.88-1-1.18.46.25.78-.17 1.36-.09-.26-.63.28-.25.49-.4a.94.94 0 0 0-.1-.68c.45.42.67 0 1.07.3 0-.17-.14-.26 0-.3 1.44.54 2.91.52 3 2.44 1.28 1.71 2.22 2.33 4.89 2.44 0 .58.79.68 1.36.39 0-.39-.4-.25-.49-.49.3 0 .75.11.78-.2-.52 0-1.51-.14-1.65-.78.27 0 .52 0 .47-.29a1.45 1.45 0 0 1-1.27-.4c0-.32.44-.43.2-.68s-.62.17-1.08.1c-.17-2-2-2.18-2.24-4.1a.4.4 0 0 0 .19-.11 1.62 1.62 0 0 0 1.27-.09c-.18-1.77-1.94-1.5-3.22-2.25.55-1.77-1.37-1.87-1.86-2.93zm-41.53-8.4c.28.25 1.6.45 1.47-.3a5.37 5.37 0 0 1-1.86-1.66 1.27 1.27 0 0 0 .39-.58 2.21 2.21 0 0 1-.77-1.37.42.42 0 0 1-.49-.29.92.92 0 0 1 .3-.3c0 .31.12.47.3.3 0-.4-.46-.33-.59-.59a1.15 1.15 0 0 0 .69-.09c-.24-.54-.14-.54.19-.88 0-.28-.54 0-.48-.4.47.4.91.13 1.56 0 0-.43-.3-.21-.1-.58a.5.5 0 0 1-.68-.4c.44-.29 1.61.29 1.76-.88-1 .07-1.28-1.13-2.15-.58.3-.17.31-.3.1-.58-.31 0-.22.3-.58.19a1.89 1.89 0 0 0-.3-1.46c-.59.49-.16-.36-.69-.4-.14.15-.28.83-.47.59.18-.08.14-.73-.1-.69a16.25 16.25 0 0 1-1.46 2.75.6.6 0 0 0-.3-.2c0 .35-.35.24-.3.59a1.59 1.59 0 0 1 .4.28 1.24 1.24 0 0 1-.89.49c-.09-.18.3-.33 0-.39-.51.32-1 1-1.66.88-.2 2.12-2.43 3.19-4.09 3.22a1.44 1.44 0 0 0 .1.68c-.28.09-.28 1.36-.49 1.66 0-.36-1-.08-.69-.48-.44 0-1.36.32-1.36-.59-.28 0-.3.23-.58.2a4.66 4.66 0 0 0 .09 4.69c-.29-.11-.16.21-.18.39.18.25.49-.21.57.2-.43-.14-.26.33-.3.58.38 0 .41-.37.79-.39a1.22 1.22 0 0 1-.1 1.36c.59.39.32 1.22.49 2.06.3 0 .22-.31.57-.2.34.7 1.48.08 1.86-.1a6 6 0 0 1 0 1.27c.36.14.72-.76 1.28-.19a1.41 1.41 0 0 0 .78-.78.69.69 0 0 0 .88.39c.06.31-.18.31 0 .49a5.48 5.48 0 0 1 .88-.2c.57.11.67.7.59 1.46l2.23-1.08a1.34 1.34 0 0 1 0 .79c.59.16.36-.91.69-.69a1.15 1.15 0 0 0-.39-.88c.39 0 0-.25 0-.38.2.19.2 0 .39-.1a1.08 1.08 0 0 0-.1-.69c.27 0 .2.17.39 0-.08-.3.17-.29.1-.58a.72.72 0 0 1-.4-.1.5.5 0 0 0 .2-.48c-.1-.28-.33-.07-.4-.2.89-.41 1.15-1.46 2.25-1.66-.46-.93-.22-2.81.67-3.12zm-58.6-13.58c-.2-.68-1.25-2.82-2.25-2.06.85 0 .16 2-.19 2.74.46 1.34.21 2.89 1.07 3.9 2.78.4 2.94-2.85 1.67-4.59-.18 0-.26.15-.3 0zm77.36-46.6a3.92 3.92 0 0 1 1.76 0c0-.67 0-1 .59-.88a1.12 1.12 0 0 0 .2.88c.31 0 .34-.25.4-.49a1.19 1.19 0 0 1-.2-.68.5.5 0 0 0 .2-.09c.37-.19.51.59.57.09a.46.46 0 0 1-.1-.68c.23 0 .38 0 .39.2-.47.19-.1.84.2 1.08.12-.27.47-.31.59-.59a.5.5 0 0 1 .29-.87c-1.45-.92-.91-3.25-1.95-4.6a.57.57 0 0 0 .19-.1.6.6 0 0 1 .48.2c.12-2.61-1.91-3.5-3-5.57a1.8 1.8 0 0 1-1-.3 1.77 1.77 0 0 0 .1.79c.28 0 .4-.18.68-.2a2.31 2.31 0 0 1 .2.59c-.4-.18-.55-.3-.59.09a1.34 1.34 0 0 0-1-.78c-.06.44.37.41.3.88-.16 0-.34 0-.3.2 0 .46 1 .94.3 1.27 1.46.32.93 2 1.26 3.23a3.34 3.34 0 0 1-.59.58c.42 1.14-1 1.18-1.36 1.85-.5 0-.51-.49-.8-.72a.17.17 0 0 1-.07 0h.07c.25.09.47-.48.32-.64a3.27 3.27 0 0 0-.78.3c.91 1-.4 2.08.3 2.94a1 1 0 0 1-1 .39c-.1-.13-.09-.36-.19-.48-1.22.69-2.88.19-3.72.68-.16.66-.82 1.82-1.75 1.76a1.39 1.39 0 0 0 .3.87q-.74-.13-.59.59c-.51-.31-.14.43-.69.1.19.45-.39.13-.29.48.31.41.58.86.88 1.27.12-.15.08-.43.4-.39a.61.61 0 0 1-.1.59.53.53 0 0 0 .29.48c.35-.39-.17-.64.19-1.08a.94.94 0 0 0-.47-.2c.37-.1-.38-.38 0-.48a6.76 6.76 0 0 1 .87 1.08c-.63.94.34 1.48 0 2.15a3.9 3.9 0 0 0 1 .38c0-.43-.44-.33-.39-.77a1.26 1.26 0 0 1 .58 1.07c.29-.29.63-.45.3-.87.2 0 .31.28.48.1-.1-.69-.42-2 0-2.75-.2-.13-.55-.39-.4-.58h-.68a.63.63 0 0 0 .2-.58c-.2 0-.13-.27-.39-.2-.4.49-1-.13-1.09-.58.59.28 1.64-.13 1.87.48.11-.39-.31-.73 0-1 .88.5 1.37-.46 2.15-.2.3-.85 1.81-.54 2.25-.2a3.92 3.92 0 0 0-.39.49 2.55 2.55 0 0 0 1.76 1.46c.08-.58.27-1 .3-1.37a.76.76 0 0 1 .67-.09c.1-.62-.61-.44-.77-.79 0-.28-.09-.67.2-.68 0 1.14.46.23.87.68a.3.3 0 0 0-.3.2zM157.7 98.57a3 3 0 0 0-1 .3.79.79 0 0 0-.19-.2c.53 0 .16-.22 0-.29.12 0 .06-.12 0-.2a1.39 1.39 0 0 0 .88-.69 1 1 0 0 0-1.36-.1c.08-.06.22-.53 0-.57-.19.3-.41 0-.49.38.23.09.42-.35.49-.1a2.16 2.16 0 0 1-1.07.39 1 1 0 0 0 .29-.48c-.39-.15-.2.26-.39.3-.06-.44-.78.21-.59-.59a1 1 0 0 0 .78-.48.61.61 0 0 1-.88-.3c-.34.22-.73.9-1.17.69.8-.87 1.82-1.5 2.54-2.45-.13-.24-.36.11-.39-.09.4-.15 1-.11 1.07-.59a.89.89 0 0 0-.68.2.45.45 0 0 1 .1-.3c-1.34.22-1.76 1.2-2.74 1.57-.34 1.11-2 1.84-2 2.73a.35.35 0 0 1-.48 0 2.21 2.21 0 0 1-1 1c-.05-.14.38-.24.09-.29-.09.24-.89.26-.59.57.24-.08.9-.36 1 0a11.1 11.1 0 0 0-1.66.89v.68c1.55-.41 3.67.25 4.79-.29 0 .21-.7.27-.39.48a2 2 0 0 1 .88 0 1 1 0 0 1 .2-.4 1.32 1.32 0 0 1 .58.2 5.83 5.83 0 0 0-1.86 1.18c1.28 0 2.15-1 3.13-1.66.4.84-.59 1.09-.68 1.76.3.3.65-.55.88-.3a1 1 0 0 0-.19.68c.32-.1.43-.3.68 0 .47-.54 1.5-1.63 1.07-2.14a.8.8 0 0 1-.58.58c-.15-.44.58-.77.78-1.18a2.38 2.38 0 0 0-1.46 1.08.45.45 0 0 0-.1-.29c.41-.9 1.23-.94 1.66-1.67zm3.13-29.7a1.79 1.79 0 0 0-.59-.78 1.05 1.05 0 0 0-.68.4c.12-.45-.66 0-.68-.3s.58-.07.48-.48a10.38 10.38 0 0 1-1.17.19.73.73 0 0 0 .2-.68.47.47 0 0 1-.3-.3c-.25-.1-.46.3-.59 0 .17-.08.53 0 .49-.29a7.26 7.26 0 0 0-1.47.19c0-.11.52-.24.19-.39-.18.54-.55-.3-.88.1.11-.31-.15-.24-.19-.39.18 0 .59.13.49-.2a4.1 4.1 0 0 1-1.47-.2c.5 0-.15-.19-.19-.3.32-.11.6.3.78 0-.38-.23.37-.14.29-.39a.42.42 0 0 1-.39-.19c.46-.13 1.07.24 1.86.1 0-.94-1.28-.21-1.66-.68.38-.32 1.29-.09 1.76-.3 0-1.37-1.27-.36-1.66-.39.26-.12.3-.08.19-.39a7.43 7.43 0 0 0 .88-.2 1.21 1.21 0 0 0-1.56-.38c0-.16.25-.08.19-.3a5.53 5.53 0 0 1-1.17.2c.19-.14.6-.06.49-.49-.82-.1-1.28.67-2.06.3.59-.34 1.15-.14 1.76-.49-.3-.95-1.83-.52-2.24 0 0-.2-.27-.19-.3-.39a1.54 1.54 0 0 1 .3-.38c-.17-.06-.58.11-.59-.1.15-.09.39-.08.3-.4-.2-.06-.64.12-.68-.1a.68.68 0 0 0 .1-.49c-.61-.2-1.13.1-1.47-.39a1.46 1.46 0 0 0 1.07-.2c-.09-1.37-2.56-.94-4-1.27a1.62 1.62 0 0 0-.78.78c.51 0 .48.19.4.68.9.29 2.1-.4 3.12 0a5.79 5.79 0 0 0-2.15.39c0 .18.15.26 0 .3-.32-.34-.55.22-.78.3.05-.2.3-.2.1-.39a1.66 1.66 0 0 0-.58.1.47.47 0 0 1 .1-.3 5.24 5.24 0 0 0-1.47.69.88.88 0 0 1-.1-.3c.62 0 .72-.59 1.27-.68-.27-.43.18-.31.2-.68a.51.51 0 0 1-.49-.2c.36.06.31-.3.3-.58-1.77 0-4.23.26-4.5.88a1.45 1.45 0 0 0-1.66 1c.07.2.55 0 .59.2-.12 0-.06.11 0 .2a2.19 2.19 0 0 0-1.76.3c.41.09.28.18.39.48.17.06.57-.12.59.1a2.26 2.26 0 0 1-.59.39c-.17-.43-.78-.39-.78-1a1.15 1.15 0 0 1 .78-.59 1.26 1.26 0 0 0-.19-.48c1-.68 2.42-1 3.51-1.56-4.23-.37-7.22 1.35-8.88 3.62a9.84 9.84 0 0 0 2 .09c-.08.32.33.14.3.4-.86.12-1.74-.28-2.34-.1.23 0 0 .27-.2.2a1.38 1.38 0 0 1 .2.68c.41.08.45-.07.58.3.59-.18 1.4.15 1.37-.3 1 1.08 4.13.81 5.47.68a6.17 6.17 0 0 0 1.46.79c.61-.22.93-.71 1.86-.59a1 1 0 0 0 .3-.68c-.17-.16-.44.12-.59-.2.45.14.84-.32 1 .39.33.14.68-.22.78 0a3.19 3.19 0 0 0-.48.69c.34-.1.61-.32.88 0-.24 0-.47 0-.49.2a2.56 2.56 0 0 1 1.37.58 1.73 1.73 0 0 1-1.37.19 2.76 2.76 0 0 1-.49.59 2.66 2.66 0 0 0 1.76-.49c0 .38.49 0 .49.2a.59.59 0 0 0 .68.59c-.33.39.47.33.69.48a12.83 12.83 0 0 1-.1 1.46c-1.29.57-2.56 1.16-3.81 1.76.19.21.71.59.39 1-1.4-.11-2.77.6-4.59-.1-.1.91-1.93.41-1.85 1.76 1 .48 1.42.19 2.73.1.1-.28.15-.25.2-.4a1.62 1.62 0 0 0 1.86 0c.07.28-.2.2-.2.4a2.12 2.12 0 0 0 1-.48c0 .31-.31.83.2.58 0 .55.42 1.27 1.07.78a1.57 1.57 0 0 1 .09.48c-.27.24-.62-.19-.87.1a.36.36 0 0 1 .29.49 1.11 1.11 0 0 1 .78.38.6.6 0 0 1-.48-.1 1.25 1.25 0 0 1 .29.68 1 1 0 0 0 .69-.1c0-.33-.29-.29-.39-.48a3.21 3.21 0 0 0 1.28.2c.19 1.12 2.5.94 3.61 1.46a2.74 2.74 0 0 1 .39-.68c-.57-.93-1.79-1.21-2.15-2.34.66-.07.74.43 1.18.58 0-.17-.1-.49.2-.39.55 1.25 1.14.82 2 1.27a.61.61 0 0 0-.09.39h.39c.29-.15-.16-.49.1-.58.07.08.54.22.58 0a1.25 1.25 0 0 1 .3-1.17c.08.35-.22.46 0 .68a1.09 1.09 0 0 0 .58-.78 1.09 1.09 0 0 1-.39-.2.94.94 0 0 0 .58-.3.5.5 0 0 1-.68-.38.44.44 0 0 0 .48-.4c-.17 0-.57.12-.58-.1.26 0 .32-.13.29-.39-.49.13-.91-.5-1.17-.2.43-.52-.37-.23.1-.78-.39-.11-.21 0-.1-.39a5.74 5.74 0 0 0-.78.19c.3-.35.24-.26 0-.58a.6.6 0 0 0 .19-.1c.07.5.49.08 1 .2 0-.08 0-.2.09-.2 0-.23-.53-.5-.29-.68a.74.74 0 0 0 .69.3.83.83 0 0 1 .1-.4c0 .26.16-.14.38 0-.12.39.36.24.1.49a.51.51 0 0 0 .3-.1c0 .31.34.26.1.48.2.06.64-.12.68.1-.73.38.09.84.1 1.28a.7.7 0 0 1 1 .29c.83-.21.66-.82 1.17-1.27a1.08 1.08 0 0 0 .78.19c0-.3.21-.31.49-.29a.77.77 0 0 1 .1-.39c0 .23.43.06.48 0 .09-.32-.32-.13-.29-.39.43.07-.08-.2.19-.2.16.36.82.12 1.08 0-.16 0-.09-.25-.15-.36a.54.54 0 0 0 .64.06zm-26.25 9.21a.08.08 0 0 0 0 .07.4.4 0 0 1 0-.07c.07-.1.29.07.27.17-.38.37-.09.77-.49 1.08.15 0 .37 0 .4.1-1 .71-2.4 1.19-2.93 2.34 3.41 2.76-2.77 6.1-5.67 6.54.3.19-.11.46 0 .78.12 0 .28 0 .3.1-.06.34-1.24 2-.78 2.84a6.73 6.73 0 0 0-1.58 1.91.52.52 0 0 1-.08.24 1.46 1.46 0 0 1 .08-.24 5.3 5.3 0 0 1-.18-.54 1.49 1.49 0 0 0-1.08.88c-.27-.17-.47-.51-.88-.29.58-.72-.2-1.48-.78-1.67.19 0 .42 0 .4-.29a3.46 3.46 0 0 1-.4-1c1-1.12 1.23-2.35 2.05-3.62-1.12-.08-2.57-.53-3.61-.1-.09-1.18-1.6-.94-2.34-1.46-.58-1.87-3.06-2.13-5.18-1.66.68-.61.67-1.94 1.08-2.83-.34.17-1.13-.19-1.56.09-.21-.95.78-1.38 1.07-2.15a.82.82 0 0 1-.59-.2 5.44 5.44 0 0 0 1.27-.2c.56-1 2.08-1.73 3.33-2.34-.28-.62 1.34-.37 1.07-1 .37-.1.16.37.49.3-.14-.86 1-.47 1.27-.88-.11 0-.28 0-.3-.1 1-.26 2.6.12 2.64-1.08-.34-.35-1.31 0-1.76-.29.56.17.27-.36.39-.4 1.33.51 2.93.53 3.42-.48 1.27.94 3.6-.74 4.78-1.66a1.1 1.1 0 0 0-.29-.2 8.1 8.1 0 0 0 2.73-1.36 4.23 4.23 0 0 1-.68-.3c.19 0 .19-.14.29-.2a2.1 2.1 0 0 0 1.37-.1.68.68 0 0 1-.09.49 1 1 0 0 1 .78.19c-.19.25.26.33 0 .69a1.82 1.82 0 0 0 1 .09c-.08-.39-.54 0-.29-.58-.34 0-.79-.46-.39-.58a.87.87 0 0 0 .78.39c.13-.4-.3-.77.1-.88 0 .32.3.23.2.59a12.62 12.62 0 0 0 4.1-1.66 1.42 1.42 0 0 0-.49-.79 5 5 0 0 1 .49-.48c-.18-.09-.33.3-.39 0 .11 0 .1-.15.09-.29a2.29 2.29 0 0 0 1.86-.59 1 1 0 0 1-.39-.2 1.07 1.07 0 0 0 .79-.39 2.18 2.18 0 0 0-.88-.1 1.48 1.48 0 0 0-.1-.48c.15 0 .36 0 .39-.1a35.16 35.16 0 0 0-3.52-.3c-.08.47-.59.51-.58 1.08a.78.78 0 0 1 .58.19c-.49 0-1 .18-.48.39-1.44-.43-1.71 1.24-2.74 1.17a1.12 1.12 0 0 0 .2-.48c-.77-.06-.67.47-1.07.58-.09.32.25.21.29.4a3.25 3.25 0 0 1-1.57.68c.28-.35-.3-.49-.29-.88a3.19 3.19 0 0 1 .59-.78c.19 0 .12.27.39.2a1.67 1.67 0 0 0 .59-1c-.06-.34-.55-.24-.49-.68-1.34 0-1.8 1.33-2.74 1.37-.06-.58.62-.44.49-1.09 0-.13-.56-.27-.29-.39a.93.93 0 0 0 1.17-.3c-.33 0-1.06.08-.59-.19-.4 0-.68.17-1.07.19A4.1 4.1 0 0 0 128 64c.43 0 1.42-.36.78-.59.39.08 1.08.27 1.08-.29-.48.31-.16-.57-.59-.58a9.43 9.43 0 0 0 .39-1.18c-.23-.13-.55-.17-.78-.29a.71.71 0 0 1 .19-.3c.86-.19 1.91-.46 2-1.18 2.52.42 3.85-1 5.57-1.66-2.16-.13-3.52-.56-5.47-.1-.18.19 0 .25 0 .48-1.58-.31-2.29 1.92-2.93 2.75a2.06 2.06 0 0 0-1.28.38c.53.25-.64.37-1.07.3a3.25 3.25 0 0 1-.78.88c.15 0 .34 0 .29.19-.76 0-.87.69-1.27 1.08.44.11.92.61 1.47.3-.11.36.37.15.29.48a6.54 6.54 0 0 0-1.47.88c.73.17.9-.41 1.18-.2-1.23 1.36-3.78.84-4.38 2.77a1.09 1.09 0 0 0-.12-.51.93.93 0 0 1-.58.29c.17-.27.58-.3.1-.48a7.39 7.39 0 0 0 1.66-1.18c-.6 0-1.06.26-1.36-.29a4.89 4.89 0 0 0 2.93-.59c-.17-.06-.57.12-.59-.1s.19-.2.19-.39c-.45-.76-1.89-1.52-2.14-.39 0-.18-.17-.23-.39-.2.09.84-1.63.28-1.86 1.07a.55.55 0 0 0 .69-.1.71.71 0 0 0-.1.3 1.24 1.24 0 0 1 1 .3c-.24.35-1.07.1-1.47.3a.77.77 0 0 0 .1.67 1.19 1.19 0 0 1 .79.1.64.64 0 0 1-.2.3c-.6 0-.77-.47-1.37-.49-1.18.19-4.28.83-5.18-.19-.55-.07-.81.17-1.36.1.14-.61-.22-.37-.39-.48a2.45 2.45 0 0 0 .29-.69c-1.56-.52-3.24.46-4.3 1.08.17.06.41-.29.49 0a.61.61 0 0 0-.1.39.66.66 0 0 0-.49.1c.16.61-.6.67-.1 1.08-.35-.15-.06.33-.29.3a.52.52 0 0 0-.39.1.47.47 0 0 1 .1-.3c-.45 0-.43.66-.88.38.14-.23.21-.18.1-.48a.72.72 0 0 0 .68-.3c-.57-.06 0-.4-.2-.58a1.88 1.88 0 0 1-.58.39V67c-1.62-.31-4.45.38-6.64-.1a16.59 16.59 0 0 1 2.34-.87c-1-1.23-4.25-.83-5.66-1a1 1 0 0 0 .29-.48c-1.37-1.43-3.24.13-5-.09a1.47 1.47 0 0 0 1-.39c-.15 0-.36 0-.39-.1a1.13 1.13 0 0 0 .78-.68c-.46.34-.91.11-1.27.48.18.1.33-.3.4 0-1 .15-1.14.63-2.06.78a.41.41 0 0 1-.3-.39c.36-.61.55-1.61-.48-1.27-.08.32-.08.21.1.39-1 0-1.63.78-2.34.68a.54.54 0 0 0 .48-.3c-.31-.13-.54.3-.68 0 .23 0 .45-.06.39-.39-2.13.31-4.14.84-6.19 1.21a.76.76 0 0 1-.36.06l.36-.06a.44.44 0 0 0 .23-.23c-.26 0-.32.2-.29-.2-1.11.47-3.07.47-3.52 1.27.14.06.5-.11.49.1a.15.15 0 0 0-.1.2c-2-.19-2.68-1.8-4.79-1.28-2.38-1.29-7-1.13-10.36-1.46.52-.07-.28-.06-.19-.29a.61.61 0 0 0 .29-.4 6.21 6.21 0 0 1-2.44.1c.34-.12 0-.28 0-.4a.8.8 0 0 1-.58.2c-.71-.8-3.48 0-4.89.2-4.6.48-9.68 3-14.17 3.9 1.37 0 1 1.32 1.17 2.15a1.63 1.63 0 0 1 1.76.1c-.46.09-.68.42-1.18.48.11-.2.47-.4.2-.68a1 1 0 0 0-.79 1.08c0-.27.69-.29.79-.1s.1.24-.1.29c-.66-.35-2.37.6-3.42-.19a3.58 3.58 0 0 0 1-.41h.12a.19.19 0 0 0-.12 0c-2.18-.42-5 1.31-7.3 1.29.14.6 1 .46 1.56.68A6.08 6.08 0 0 1 33 71a.11.11 0 0 0 .13-.08.41.41 0 0 0-.13.08h-.06a2.52 2.52 0 0 1-.62.86c1.26.39 3.53.34 3.91 0 .17.32-.47.46 0 .48a16.41 16.41 0 0 1 2.93-.88 2.84 2.84 0 0 1-1.46.78c.12 0 .28 0 .3.1-1.22 1.51-3.46 1.41-5.57 2 0-.2-.13-.2-.2-.3A61.49 61.49 0 0 0 25.81 77c.38 0 0 .08.1.29.35.09.65-.38.88-.1-.21.94-1.78.5-2 1.47a1.06 1.06 0 0 1 .1 1.17c1.67-.19 2.85-1.37 4.2-1.56-.35.38-1.54.4-1.56.84 0-.12.45-.1.39 0-.35.71-1.79 1.3-1.65 1.86a14.82 14.82 0 0 1-1.37.68c.67.37 1.19-.41 1.66-.2a.53.53 0 0 0-.48.3c.82 0 1-.76 1.85-.78-.19.2 0 .2.1.4.31.16.4-.38.49-.11a1 1 0 0 1-.1.79c.8-.3 1-1 1.86-1a2.37 2.37 0 0 0-.3.78c.77-.15 1.55-.8 2.15-.78a9.74 9.74 0 0 0-3.72 2.44c-1.91.84-5.54 1.28-6.74 2.84-.25-.3-.33-.07-.68 0-1.16-.81-3.59 1.06-5 1.36a3.42 3.42 0 0 0-2.93 1c1.14-.08 1.89-.57 2.83-.4a2.47 2.47 0 0 1 .79-.78c0 .68.6-.1.88-.1.74.65 1.46-.86 2.44-.68-.15 0-.37 0-.4.1a6.58 6.58 0 0 0 2.74-.48c0 .2-.27.19-.3.38 2.29-1 5.36-1.76 7.63-3a28.48 28.48 0 0 0 7-2.64 1.26 1.26 0 0 1-.68-.2 40 40 0 0 1 6.45-2.64c-.74.44-1.82 1-2 1.76.06-.08.46-.31.48-.1-.59.33-1.57.26-2 .78 1.92 0 3.3-.87 5.08-1.36 2 .44 3.47-1.59 5.35-1.33a.6.6 0 0 0-.29.19c.28 0 .19.33.58.2a3.38 3.38 0 0 0-.3.48c.54 0 .9-.59 1.28-.39a1.48 1.48 0 0 0-.69.48c.13.18.73.15.49.39 1.28.11 2.51-.36 3.62-.1a1.19 1.19 0 0 1-.49.39c1 .55 1.92.07 2.74-.3-.07.27.19.2.19.4a2.55 2.55 0 0 0-1.27.39 7.61 7.61 0 0 1 1.47 2.24c.55-.3 1.14 0 1.36-.68-.34.09-.17-.32-.1-.4a.68.68 0 0 1-.57-.29c.57 0 .78.53 1.27.29a5 5 0 0 0-.59.79 1.22 1.22 0 0 0 1.56-1.18c.59.17.39-.46.78-.49-.94.77-.57 1.89-.58 2.55.15 0 .36 0 .39.09-.34 0 .18.43-.09.39a2.15 2.15 0 0 0-1.08.1 1.3 1.3 0 0 1 .58.2c0 .33-.59 0-.58.39a.88.88 0 0 1 .68.2 1.08 1.08 0 0 0 .2 1.46 2.38 2.38 0 0 0-1.37 1c.59-.09 1-.92 1.66-.58-.09.4-.83.55-.49 1.07-.27.09-.92.18-.48.4a.47.47 0 0 0-.49.2c.29 0 .34 0 .2.2a3.83 3.83 0 0 0 .88-.1c-.22.46-1.5.38-1.08 1.17 0-.16.6-.16.59 0a.73.73 0 0 0-.59 1.28 2.58 2.58 0 0 1 1.57-.78c-.54 0-.33.9-1 .58a5 5 0 0 1-.4 1.18c.14 0 .5-.12.49.1a3.94 3.94 0 0 0-1.07.87c.35 0 .74-.38.48.1.48-.1.81-.37 1.28-.48-.11.31.15.24.19.38-1.49 0-1.87 1-2.73 1.77a.69.69 0 0 0 .68.78.85.85 0 0 1 .78-.3c-.25.4.07.11.2.3a1 1 0 0 1-.49.48 1.6 1.6 0 0 0 1.08-.1c.11.56 1-.38 1.37-.48-.15.42-.72.46-.88.87 0 .36.32-.2.29.11-.2.24-.57.42-.39.78.56.39 1.16-.46 1.37-.4a1.94 1.94 0 0 0-.88 1.08c.24.33.71-.2.78 0a1.71 1.71 0 0 0-.39.78c.65-.09.07.44.48.58A1.38 1.38 0 0 0 61 99c.49.52-.32 1.28-.69 1.57a1.38 1.38 0 0 0 .39-.68c-.17-.3-.39.36-.58 0s.27.15.19-.3c-.56-.2-1.47-.27-2.25-.48-.41 1-.73 2.27-1.1 3.15a.09.09 0 0 0-.07-.13c-.09.27-.3.41-.39.68.12 0 .28 0 .29.1a49 49 0 0 0-7.23 10.75.76.76 0 0 1 .3.48 12.48 12.48 0 0 0-.68 1.66 2.94 2.94 0 0 1 .38 4.6c.34 1.07 1.26 2.19.39 3.12 1.14.3 2.36.51 2.74 1.56 2.07.65.54 4.68 1.56 6.16-.68 1.41 1.5 1.76 1.57 3.32a1.71 1.71 0 0 1-.59.78c0 .22.3.53.09.58-.27-.17 0-.39-.29-.39a1.55 1.55 0 0 1-1.08 0c-.06.65.74.43.58 1.17a1.24 1.24 0 0 1 1 .89 3.22 3.22 0 0 1 .79-.1 2.47 2.47 0 0 1 .48 3.61c.4 0-.09.27.3.3 0-.15 0-.34.19-.3.7 1.2 2.24 1.54 2.34 3.32 1.28-.13 1-1.29.78-2a.88.88 0 0 1-.58-.59c-.37-.14 0 .44-.39.3-.63-.31-.12-1.38.19-1.36a.93.93 0 0 0-.29-.3c0 .12 0 .28-.1.3-.26-.47 0-1-.4-1.36a3.71 3.71 0 0 0 .4-.59c-.35-.14-.31.59-.49.3.28-.66 0-2-.48-1.86-.1-2.77-3.67-5.95-1.27-8.6.67.59 1.26.33 2 1.07a5 5 0 0 0 .1 3.43.53.53 0 0 0-.49.88c.4.08.18-.47.59-.39.12.79.71 1.12.88 1.86a1.09 1.09 0 0 1 .78.2c-.75 1 .78 1.09.68 2.06a.65.65 0 0 0 .49-.1.94.94 0 0 1 .19.58c-.65.67-.83 1.75.3 1.56 0 .56.74.5 1 .88a3.42 3.42 0 0 0-.1.78c1.84 1.16 2.44 3.62 3.23 5.56a3.16 3.16 0 0 1-.69 1.28c.33-.1.32.14.3.4a1 1 0 0 0-.69.19c-.07 2.25 2.22 2.14 2.74 3.82.81.13 1.46.83 2.34.58a6.86 6.86 0 0 0 4.59 2.54 4.77 4.77 0 0 0 6.16.58 1 1 0 0 1-.39-.2 1.53 1.53 0 0 1 .69.1c-.12 0-.23 0-.19.2a.49.49 0 0 0 .58-.2c-.2.47.53.55.58.3a10.42 10.42 0 0 0 5.87 4.68c1.23 0 1.68.73 2.93.69.15-.12.15-.37.3-.49.1.33.17.29.39.1-.1.37.24.28.2.58-.22.26-.33-.3-.58 0 .9 1.22 1.88 2.35 2.83 3.52a2.78 2.78 0 0 0-.39.3c.19 0 .41 0 .39.29a3.61 3.61 0 0 0-.39.79c0 .78.89.73 1.17 1.27.06-.23.32-.27.39-.48a1.73 1.73 0 0 1-.48-.58 1 1 0 0 1 .78 1.07c.91.24 2 .91 1.26 1.76a1.46 1.46 0 0 0 .78.4c.18-.35-.33-.51-.1-.59.41.15.37 1.27.79 1.08-.23 0 0-.37.1-.4a1.31 1.31 0 0 0 .78 0c-.24.31.6.2.87.3-.18.43.61 1.36 1 .68.2.37-.49.33-.19.48a.66.66 0 0 1 .29-.2 6 6 0 0 0 .1.69c.55.29.81-.46 1.46-.4 0-.65-.54-.75-.68-1.27.78-.63 2.56-2.6 3.12-.39.19.09.33-.3.4 0-.18.11 0 .63-.4.48a9 9 0 0 0 1.57 2.64 2.14 2.14 0 0 0 .09 1.56c0 .31-.48 0-.39.4.51.61 0 1.91.29 2.34a.23.23 0 0 0-.29.29 1.72 1.72 0 0 0 .48.49c-.39.35-.38 1.12-1 1.26a1.81 1.81 0 0 1-.19.88c-.22-.24-.62.17-1.17.2a1.19 1.19 0 0 0 0 1.18.5.5 0 0 0-.78.39.41.41 0 0 1 .4.3c-.35.7-1.45.64-2.06 1.08a1.62 1.62 0 0 1-.68 2 .79.79 0 0 1-.59 1.18c0 .74.58 1.82-.1 2.24.38.5 1.26.49 1.17 1.46.5 0 0-.47.59-.48 0-.2-.13-.2-.19-.3.17 0 .3-.46.39-.2 0 2-3.36 2.36-2 4.51a.25.25 0 0 0-.19.29c.18.38.66.44.58 1.08a3.49 3.49 0 0 1-.49.09v.49c3.45 1.6 4.58 6 6.06 9.28 1 1 2.6 3.12 2.44 4.4 1.3 3.87 6.25 4.11 8.5 7 3 1.29 2.71 6.43 2.74 9.58a.55.55 0 0 0-.29-.1v.87c.13.25.29-.17.39.1.07 2.7.31 4.66.39 7.33-1.14 1.81.71 3.58-.2 4.68 1.75 4.17 1.29 7.52 1.08 11.53-.14 0-.17-.17-.3-.2-.06.48.26.59.2 1.08a1.46 1.46 0 0 1-.58-.1c0 1.74 2.53 3.54 1.46 5.08.28 1.36.24 2.45 1.37 3.22a1 1 0 0 1-.69-.1 14.89 14.89 0 0 1 .49 2.64 1.83 1.83 0 0 0 1.08.2c-.2-.41-.17-.31.19-.49-.31-.19-.44-.29-.19-.58a.67.67 0 0 1-.59-.4c.41 0 0-.15 0-.29a.64.64 0 0 1 .39-.1c-.05-.41-.51-.41-.49-.88.75.17.24-.52.59-.58a.81.81 0 0 1 .49.39c-.06.21-.28.32-.1.49a.49.49 0 0 0 .58 0 .66.66 0 0 0 .2.49c-.24-.22-.21-.15-.58-.11.26.81.66 1.25.39 2.15a3 3 0 0 1 .49.68 3.32 3.32 0 0 1-.3.58c.23.13.46.26.68.4-.63-.12-.06.39-.48.39.36.48.33 1.31.78 1.26-.38.39-.5.2-1.18.19.06.25.08.5.4.49a1.42 1.42 0 0 0 .19-.3c-.12.45.39.28.49.49a3.47 3.47 0 0 0 .1.78c-.57-.16-.76-.94-1.27-.88a1 1 0 0 0-.48-1.08c-.23.46.26.44.2.78-.14-.14-.32-.07-.3.2.2.2.26 0 .39-.1a1.39 1.39 0 0 0 .19.49.7.7 0 0 0-1 0 .41.41 0 0 0 .59.29 3.59 3.59 0 0 0-.88 1.08.94.94 0 0 0 .68.48c.33-.24-.47-.43-.19-.58a.53.53 0 0 0 .39-.1c.06.49.74.37 1.07.59 0-.18-.14-.26 0-.3a3.59 3.59 0 0 0 .78.48c-.63.59-.19.66-.58 1.18a1.09 1.09 0 0 0 .68.1 1.18 1.18 0 0 0-.29.58 2.57 2.57 0 0 1 1.17.69c-.6-.21-.07.43-.39.58a1.7 1.7 0 0 0-1.08-1.27c.19-.19-.05-.18 0-.48-.16.17-.79.15-.48.48-.23-.14-.18-.21-.49-.1.42.41 0 .74.49 1.18.45-.28.43.07.88-.2a1.69 1.69 0 0 0 .09.68c-.29.22-.27-.51-.87-.29.19.53.35.3.29.78.26-.22.53-.41.78 0-.24 0-.3-.19-.48 0 0 .39.45.26.48.58-.17 0-.48-.1-.39.2a.93.93 0 0 0 1.17.09c-.32.33.26.25.2.59-.19 0-.61-.37-.79-.1.21 0 0 .35.1.48.54 0 0 .76.69.78-.18-.32.12-.5-.2-.68.4-.51.3-.51.68-1-.07.27.19.19.2.39-.17 0-.49-.1-.39.2a3.46 3.46 0 0 1 .78.48 1.76 1.76 0 0 1-.49-.1c-.15.35.33.06.29.3-.12 0-.06.11 0 .2-.23.24-.18-.15-.48-.1a.65.65 0 0 0 1.08.58c-.23 0-.23-.26 0-.3 0 .75.9.59 1.17 1.08a.82.82 0 0 0-.29-.09.88.88 0 0 0 .78.68.77.77 0 0 0 .39.58 5.15 5.15 0 0 1-1.17-.58.4.4 0 0 1 .29.1.61.61 0 0 0-.39-.49c0 .53 0 .19-.39.4.47.4 1.3.45 1.66 1-.1.2-.43.16-.39.49.3-.08.19.27.49.2s-.2-.37.1-.49a1.67 1.67 0 0 0 .1.49c.29 0 .36-.4.48 0-.47.09.34.24.2.58a2 2 0 0 1 .68 0c-.22.16-.4.1-.39.3-.59-.52-1.73-.49-2.35-1 .48.89 2.06.67 2.73 1.36-.18.09-.33-.3-.39 0 .1 0 .07.13-.1.1a.36.36 0 0 0 .58.29 5.11 5.11 0 0 1 .1.69h.38c.08-.32.09-.2-.09-.4.22.14.37-.25.38 0s-.19.2-.2.4a4.33 4.33 0 0 0 .88-.1c-.26.57.36.09.1.59.53 0 0-.36.3-.49a1.61 1.61 0 0 0 .58.4.32.32 0 0 1 .59-.1c0 .27-.28.24-.39.39.21-.22 0-.21-.3-.19-.05.35 0 .54.3.58.8-.57 1.24.18 2.25.19-.59.26-.86-.12-1.47-.1a3.28 3.28 0 0 0 1.76.58c0-.48-.33 0-.39-.38a1 1 0 0 1 1-.1c-.75.33.79 1.26 1.28 1-.22 0-.57-.33-.4-.39a.37.37 0 0 0 .49 0 .6.6 0 0 0 .09.48 1.69 1.69 0 0 1 1.47.39 2.28 2.28 0 0 0-1.28-1.07c.31.11.24-.16.4-.2a.65.65 0 0 0 1.08.29.4.4 0 0 0 .48.3c.38-.28-.33-.57-.1-.68.8.35 1.46 0 2.25 0a1.63 1.63 0 0 0 .09-.49 9.52 9.52 0 0 1-5.76-2.73.5.5 0 0 1 .3.1 2.67 2.67 0 0 0-1.26-1c-.21.45-1.06 0-1-.49a8.73 8.73 0 0 1 1.46.3c-.82-1.14-2.3-1.6-2.34-3.52a1.22 1.22 0 0 0 .88-2c.21-1.09 1.48-1.44 1.76-2.15-.26-2.41-5-1.4-3.52-4.68.76-.13.9-.67 1.86-.4.13-.43-.38-.2-.29-.58.72-.47.07-1.13-.2-1.86 0-.7.68-.82 1-1.28a1 1 0 0 1-1.08-.48 1.47 1.47 0 0 1 .78-.2 3.06 3.06 0 0 1 .4.59 1.34 1.34 0 0 0 .78-.1 1.4 1.4 0 0 0-.68-1.36c-.11.22-.48.17-.59.4.26 0 .43 0 .39.29h-.69c0-.27.16-.2 0-.4-1.1-.08-1.82-2-1.37-2.64.48.55 3.42 1.49 3.82-.09a4.45 4.45 0 0 0-.59-.59 1.66 1.66 0 0 0 0-.88c.14.11.24.11.29-.1 0-.85-1-1.16-.88-1.76 2.13.95 5.12-.18 6.64-1.08 0-1.34 1.43-2.34.3-3.41-.69.27-1.29-.9-.78-1.57-.66-1-2.93-1.14-2.54-2.64.22.44.76.54 1 1h1.08c.27.4 1 .37 1.27.78a3.69 3.69 0 0 1 2.34.09 14.43 14.43 0 0 0 1.47-1c.55-1.6 1.43-2.88 2-4.5 2.34-.89 1.52-4.93 3.72-6 0-.75.19-1.42.29-2.13-.52-.06-.06.4-.29.48a.82.82 0 0 1 .1-.88c-.63-.76-.33-2.17-.3-2.9a.37.37 0 0 1-.39-.13c.51.13.28-.24.39-.3l.3.3c.55-1.1 1.85-2.44 2.73-2.55a1 1 0 0 1 .59-.48 9.58 9.58 0 0 1 1 .39c.13-.59-.31-.27-.3-.58a3 3 0 0 1 1.27-.59c.07-.33-.4-.12-.29-.47.42 0 .32-.31.68-.1 0 .31-.39.42.2.39-.13-.2.08-.7.58-.39-.17 0-.48-.1-.39.19a8.67 8.67 0 0 1 3-.19c-.08-.32.15-.31.2-.49-.53-.61.85-1 1.27-1.27a3.46 3.46 0 0 1 .1-2c1.86-1.08.82-4.17 2.25-5.86-.1-2.58.1-5.42-.4-7.62.55-.32.28-.86.58-1.28.31 0 .08.57.3.69 1.5-1.08 1.31-3.84 3.13-4.6.85-1.25 2.6-3.43 2.34-5.87-.17-1.61-.82-4.71-3.13-3.81a.83.83 0 0 0-.78-.29c-.57-.8-1.57-1.17-2-2.15-1.43-1.45-3.77-1.6-5.57-1.76-1.07.36-1.38-.8-2.54-.68 0 .17.14.25 0 .29-.25-.37-.94.41-1.08.4.05-.24.38-.21.3-.58-.86-.14-.44 1-1 1.17a1.77 1.77 0 0 1 .39-1.36 6.19 6.19 0 0 0-.88-1.56c0 .21-.35 0-.49.1-.17.25.15.38-.2.4-.13-.32.3-.54 0-.69a.28.28 0 0 1-.19.2c.31-.46-.72 0-.3-.48-.19 0-.19.13-.3.19 0-.44-.76-.06-.48-.58-.66.3-1.19-.4-1.66-.59-1.28 0-1.81.34-2.06 1.67-.72-.13-1.05.95-1.56 1.36a8.29 8.29 0 0 0 .39-1.07 3.42 3.42 0 0 1-1.86.29c1.76 0 3.15-.85 3.22-2.84-1.18-.41-2.05 0-3.42-.29a1 1 0 0 0-.3.78.74.74 0 0 0-.68.38.61.61 0 0 0-.09-.48c-.35-.09-.54.49-.69.3.79-.34 1-1.48 1.86-2.06 0 .49-.4.6-.3.88-.34 0-.63.08-.58.48.6 0 .65-.45 1.08-.58a2.24 2.24 0 0 0 .68.2 2.07 2.07 0 0 0 .48-.69 2.57 2.57 0 0 0-1.17.2c.06-.3.85-.55.39-.78a.46.46 0 0 1-.58.1 1.56 1.56 0 0 1 .78-.39c0-.2-.13-.2-.2-.3.5-.26.35-.56.4-1.27a1 1 0 0 0-.78-.29c.16-.17.14-.72-.2-.68s.26.42-.1.48c-.89-1.25-.22-3.64-1.56-4.3a.42.42 0 0 1-.1.4 6.52 6.52 0 0 0-.2-.89c-1.36-.86-3.08-2.79-5.37-2.24-.23-.35-1.15-.25-1.17.2a2.28 2.28 0 0 0-1.76-.3c-.45-.76-1.39-1.84-2.24-1.56.45-1.78-1.52-3.18-3.23-3.12a3.39 3.39 0 0 0-.11-1c0-.07 0-.06 0 0a1.46 1.46 0 0 1-.18.47c-.23-.13-.37.26-.4 0 .15-.37.46-.58.59-1-.16-.49-1-.28-1.07-.89-.5.3-.73-.15-1.08-.29-.15.07 0 .47-.29.4 0-.67-.55-.76-.69-1.28.64 0 1.33 0 1.56-.4-1.38.18-2.71-.12-3.8.4 0 .19.69-.21.78.1-1.4.36-2.93 1.37-3.71-.3a25.24 25.24 0 0 0-3.13.3 1.74 1.74 0 0 0-2.25-1.76c-.28-.27-.1-1-.39-1.27-.59-.2-.83.89-.39 1.09a1.37 1.37 0 0 0 .49-.2c0 .18.11.22.1.39a5.43 5.43 0 0 0-3 1.26c.06-.6-.4-.69-.39-1.45a1.63 1.63 0 0 0 1.36-1 .74.74 0 0 0-.87-.58 2.58 2.58 0 0 1-.79.4 2.94 2.94 0 0 1-3.22 1.56c-.33.38-.22.75-.49 1.07a.36.36 0 0 1 0-.48 2.34 2.34 0 0 1-.68-.2 3.06 3.06 0 0 0-1.37 3c-1.24 0-1 1.39-2.15 1.46 0 .23.4.63.1.88-1-.89-1.33-2.45-3.33-2.34.24-.31-.59-.21-.88-.3a5.69 5.69 0 0 1-3 1.46 4.52 4.52 0 0 0-.58-.68c-.3.18.27.31 0 .4a.58.58 0 0 1-.59-.2.65.65 0 0 0 .3-.49c-1.42-.59-2-2-2.54-3.51.12-.3.69-.76.2-1.08a15.83 15.83 0 0 0 1.17-5.28c.21.23.24-.17.39-.29-.62-.46-1.4-1.7-2.15-1.37-.32-.81-1.44.18-2-.48-.48.73-2 .5-2.84.19a3.19 3.19 0 0 1-.68.4c-.21-.12-.38-.27-.59-.4 0 .12 0 .28-.09.3a1.54 1.54 0 0 1-.4-.3c1.38-.84 1.26-2.83 1.86-4.29-.15 0-.36 0-.39-.1a3.5 3.5 0 0 1 .48-.58c-.2.48.12.45.09 1a6 6 0 0 0 1-2.06c-.17 0-.25.15-.29 0 .2 0 .68-.29.4-.49 0 .24-.44.07-.4-.1.5-1.15 2.5-2.13 1.56-3.51-2.12.38-6-.25-5.76 3-.65.59-.74 1.74-1.86 1.86-.08.32.26.21.3.39-.22.22-.72.61-1 .2a1.06 1.06 0 0 0 .58-.39 1.31 1.31 0 0 0-.58.3c-1.21-.29-2.83.69-4.3.79 0-1-1.34-.81-2-1.28-.12-1.8-1.82-2.94-1.36-4.69a.94.94 0 0 0-.39-.58c0 .39.53.6.09.88-.88-1.84 1-4.3.39-5.56.27 0 .2-.17.39 0-.07-.32-.14-.48.1-.2a7.17 7.17 0 0 0 1.17-3.63.1.1 0 0 0-.09-.08c0-.16.07-.26.1-.39V137a1 1 0 0 1 0 .3v.47a.9.9 0 0 1 0 .21c0 1.7.17-1.11.1-1.27 0 .18-.28-.16-.4-.19a2.06 2.06 0 0 1 .58.1c.2-.73 1-1.21.59-1.57h.39c0 .16-.42.41-.2.49a3.48 3.48 0 0 1 1.08-.88c.08-.12-.34-.4-.1-.58a2.94 2.94 0 0 0 .69.29 5.84 5.84 0 0 0 2.15-1.46c0 .17-.46.31-.2.39a.59.59 0 0 1 .3-.3 2.77 2.77 0 0 1-.2-.68 1.79 1.79 0 0 1 .49-.1c0 .2-.27.12-.19.4.45 0 .18.12.09.29 1.47-.58 2.32-1.07 4-.39a.49.49 0 0 1 .41-.52c-.1.3.22.18.39.2-.18.46.27.32.39.48a.37.37 0 0 1-.19.3 1.45 1.45 0 0 0 1.46 0c.27 0 .09.37.29.39a1.57 1.57 0 0 0 .39-.77c.12.38.93.36.68 1a1.37 1.37 0 0 0 .69-.3c0-.57-.82-.36-.78-1 .3.1.35.06.19-.2h.4v-.49c-.3 0-.39.32-.58.1 0-.14.16-.16.19-.3-.43-.13-.87.3-1-.09a1.5 1.5 0 0 1 .49-.3 3.39 3.39 0 0 0 3.32-.48.64.64 0 0 1-.2.87c.7-.1 1.06-.54 1.66-.48a.47.47 0 0 0-.48.2c.63.12 1.15-.41 1.56-.2-.12 0-.28 0-.29.1a1.06 1.06 0 0 0 1.07.2c-.11.68.47.49.1 1 3.07-1.72 4.14 1.33 3.39 3.52a.21.21 0 0 0-.07.19l.07-.19a1.26 1.26 0 0 0 .22-.2.42.42 0 0 1-.4.58c.27.39.12 1.19.59 1.37.1-.1 0-.37.29-.3-.43.31.05.84-.39.78 0 .41.14 0 .39.1a2.49 2.49 0 0 0 .1 1 .6.6 0 0 1 .48.1 2.37 2.37 0 0 0 .49 1.07.78.78 0 0 0-.4-.2c-.1.66.74.33 1.08.3.13.25-.39.31-.1.39 3.07-2.89-1.45-11.09 2.64-13.18a3 3 0 0 0 1.56-.89c1.24-.1 1.76-2.45 3.42-1.85.18-1 1.94-1.77 2.54-1.37 0-.31.63-.32.4-.58s-.56.26-.69-.1c.46.07.39-.4.69-.48a.81.81 0 0 1-.3-.2 1.25 1.25 0 0 0 1.66-.88c-.24-.34-.43.46-.58.2.05-.21.3-.2.1-.4s-.47.22-.49 0a1.1 1.1 0 0 1 1.07-.3c0 .27-.05.58.19.59a4.39 4.39 0 0 0-.29-2.06c-.3-.07-.29.17-.58.1.09-.33-.54-.42-.3-.58.26.16.29.62.68.39.17-.31-.36-.4-.1-.48s.1-.2.3 0a4 4 0 0 1 .39-1.18.81.81 0 0 1-.49-.39c.15 0 .4.36.49.1a2.12 2.12 0 0 1 1.37-2.45 7.25 7.25 0 0 0-1 1.18c.17 0 .25-.15.3 0-.25.11-.36.26-.1.4-.39-.1-.3.28-.39.48.81 0 .17.62.58.88a1.93 1.93 0 0 0-.88 1.28c.78-.44 1-1.39 1.76-1.86 0 .22-.59.38-.3.58a6.67 6.67 0 0 0 .88-1.46 2.38 2.38 0 0 1-.29-1.28c.3.3.89.4.49.88 1-.75 2.5-1.85 2.24-3.12a5.86 5.86 0 0 0 3.62-.78c-.22.1-1 .18-.49-.1a17.08 17.08 0 0 1-2.45.49c.92-.75 2.46-.76 3.62-.79a2.86 2.86 0 0 1 .49-.68c.18.19.18.08.09.39a2 2 0 0 0 .88-.39.72.72 0 0 0-.1.29 2 2 0 0 0 1.17-.39c-.06-.21.16-.68-.19-.58a.45.45 0 0 1-.39.68.84.84 0 0 0-.2-.2c.09-.55-.18-.9-.39-.88.85-.51 1.18-2.53 2.64-2.44.13-.13 0-.47.29-.48 0 .11 0 .28.1.29a.91.91 0 0 1 .78-.29 1.33 1.33 0 0 1 .78-.89 1.52 1.52 0 0 1-.2.3 1.84 1.84 0 0 1 .49.1c0-.12 0-.28.1-.3 0 .16 0 .35.19.3s.06-.33.19-.4c.4.31 1.26-.43 2-.48a.57.57 0 0 1 .19-.68 6.06 6.06 0 0 0 3.91-1.17c-.14.43-.78.39-.88.87a2.29 2.29 0 0 1 1.66 0 1 1 0 0 0-.78.4 2.22 2.22 0 0 0-.2-.49c-.88.68-2.17 1-3 1.66a.39.39 0 0 0 .29-.1 2.28 2.28 0 0 0-.69 1.28c.46 0 .4.37.88.49.75-.65 1.88-.92 2.34-1.87a3.08 3.08 0 0 1 .88.2c1.11-.82 3.2-1 4.3-1.56a1.81 1.81 0 0 1-.49-.2c.35.16.06-.33.29-.29.73.27 1.48-.27 2.15-.58a1.84 1.84 0 0 1 .1-.49 1.54 1.54 0 0 1-.78-.29 2.86 2.86 0 0 0 .58-.88c-.38 0 0-.08-.09-.3a4.13 4.13 0 0 0-2.35 2.44c-.34 0-.55 0-.49-.39a3.2 3.2 0 0 1-2.83-.3c.19 0 .43 0 .39-.3a1.11 1.11 0 0 1-1.07-.29c.23-.42-.14-.9.2-1.28-.25-.13-.47.22-.49 0a7.57 7.57 0 0 0 1.47-1.46.78.78 0 0 0-.39.39 2 2 0 0 1-.39-.3 5.47 5.47 0 0 1-.79.3 2 2 0 0 0-.87-.69 5.11 5.11 0 0 0 3.32-.59 5.05 5.05 0 0 0 .19-1.07c-4.44-1.23-7.84 2.34-10.74 3.62.92-.59 2.23-1.27 2.54-2.15 1.74-1.09 4.47-2 6.16-3.52 2.19.1 4.76-.37 6.54.3a9.67 9.67 0 0 0 4-1.17c1-1.53 4.24-.86 5.46-2.45-.19-.41-.17-.31.2-.48-.06-.19-.55 0-.59-.2a2.79 2.79 0 0 1 .59-.19c-.43-.14.5-.41-.2-.59a.53.53 0 0 0 .59-.39c0-.47-1-.63-.59-.87a3 3 0 0 0-1.26.39.77.77 0 0 0-.1-.2 1 1 0 0 0 .59-.19 4.9 4.9 0 0 0-.1-.69 3.75 3.75 0 0 1-1-.2c.45-.17 1.23 0 1.27-.58a1.51 1.51 0 0 0-.59-.09c.17-.21-.07-.2.1-.39-.35.1-1 .39-1.27 0 0-.18.11-.22.1-.4-.27 0-.34.19-.19-.1-.74.35-.35.07-1 0a.26.26 0 0 0 .29-.19c-.27 0-.69.28-.88 0 .47 0 .17-.67.49-.78a1.5 1.5 0 0 1-1.18-.4.79.79 0 0 0 .1-.39c-.17-.07-.4.29-.48 0 .43 0 0-.31-.1-.4.55.2.43-.29.58-.49.09.09 0 .31.4.3a6.26 6.26 0 0 1 .39-.88c-.1-.22-.69 0-.78-.2.69 0 0-.34-.1-.48a.55.55 0 0 0 .59-.3c-.34 0 .18-.42-.09-.39s-.08-.39-.4-.49a.57.57 0 0 0 .3-.39c-.16-.27-.54.28-.68 0 .55 0 .35-.33.58-.59-.29-.06-.37-.25-.1-.39-.15 0-.36 0-.4-.1.21.09.38-.32.2-.3a.85.85 0 0 1-.48-.19c.22 0 .37 0 .39-.2-.47 0-.08-.17-.39-.3.33-.14 0-.5-.1-.48a.7.7 0 0 0 .3-.59c-.16 0-.09-.3-.39-.19a3.26 3.26 0 0 1-1.66 1.27c-.16.31.36.4.1.49-.69.16-.94.91-1.66 1.17-.59-.32-1.36.85-2.34.78a.39.39 0 0 1 .09-.29c-.59.23-.43.39-.19-.2-.55.19-.31-.42-.49-.58a2.92 2.92 0 0 0-1.18.09c.27-.15.16-.68.69-.58.15-.41-.5 0-.49-.3s.78-.53.49-1.07a9 9 0 0 0 1.36-1.76 3.31 3.31 0 0 1-.87.4c0-.19.11-.22.09-.4a2 2 0 0 1-1.66-.3c.16-.19 0-.12 0-.39h.39c-.08-.46-1.09-.43-.78-1a1.34 1.34 0 0 1-1-.59c-2 1.4-5.05-1.52-6.16 1.08a1 1 0 0 0 .29.49 12.48 12.48 0 0 0-1.34 1.2zm-24.35 32.7a1.44 1.44 0 0 1 .38-.58c1.76.45 2.57-1.59 4.89-.89 0-.13-.24-.08-.39-.1.41-.49 1.55-.27 2.15-.58-1.34 1.16-5 3.23-7 2.15zm2.93-8c1.44.06 2.55.45 3.91.59a1 1 0 0 0 .39 1 3.75 3.75 0 0 0 .1 1c-.3-.28-.61 0-.48.47a.6.6 0 0 1-.78-.39c-.15 0-.09.31-.4.2.23-.45-.26-.65-.19-1.18a1.79 1.79 0 0 1-.49.1c.16 1.61-1.38 3.08-2.64 3.91-.14-.34.35-.89.2-1.56-.58-.77-1.13.4-1.76.48.28-.94 1.88-1.45 1.86-2.74a2.41 2.41 0 0 0-1.76-1c-.41.56-1.41 1.06-1.57 1.56-.45.21.15-.39.2-.59-3.21.95-2.1 5.59-5.47 6.36-.08-3 1.93-4.77 3.52-6.45-.53 0-1 .81-1.66 1 .27-.64 1.48-1.19 2-1.95 0 .31.22.07.58 0a.73.73 0 0 1-.09.29c1.85-1.11 4.65-.61 6.64.2a.75.75 0 0 0 .59-.58c-.05-.27-.38.4-.3-.2-.52.24-.68-.14-1.27.2v-.3c-.69.48-.93-.41-1.46 0a2.49 2.49 0 0 1 .39-.4zm-5.37-3.9a.45.45 0 0 0-.1.3c.59 0 .64-.6 1.07-.78a7.19 7.19 0 0 1-.49.57 8.47 8.47 0 0 0 1.47-.67c-.15-.4-.57.25-.59 0 .41-.59 1.45.35 2.35.19-.35 1.21.23 1.58 1.37 1.28a1.35 1.35 0 0 1-.4.58c0 .35.35.25.3.58a4.05 4.05 0 0 1-.49.59c0 .14.24.08.39.1-.4.18 0 .53-.49.58 0 .21.35 0 .49.1 0 .74-.22.87-.1.1a2.11 2.11 0 0 1-1-.1 1 1 0 0 1 .29-.48c-1.38-.16-3.27 1.28-3.91-.2-.55.16-.56-.27-.88.2 0-.45.91-.85 1.47-1.08-1.75-.07-3.11 1.55-5 1.36-.24-.24.65-.19.58-.58-.58.18-1.47.26-2.25.48 1.55-1.45 4.29-1.7 5.86-3.12zm-9.09-7.62a1.84 1.84 0 0 0 .78-.2c-.08-.24-.68 0-.78-.2a14.3 14.3 0 0 1 1.17-1.27c.29.11.69.08 1 .2.44 1.15-.64 2.37-.4 3.32-.22.3-.88.16-1 .58-.23-.24.41-.43.39-.78s-.21-.3-.29-.39c-.35 0-.36.67-.69.39.26-.77-.24-.83-.19-1.66zM97.62 75c-.08.33-2 .1-1.18.39-3.11.48-6.87 3.6-10.55 2 1.9.18 3-.69 4.59-1.08a.75.75 0 0 1 0-.88c-.08-.12-.66-.24-.39-.39.32.21 1.53.46 1.95 1.08 2.47.32 3.56-1.27 5.57-1.08zm-4.89-6.74c-.48.52-1.66.35-2.15.88.65.69 4.4-.57 3-.1.45.47-1 .51-1.26.88 0 .17.07.19.19.2-1.51-.05-2.76-.12-3.39 1.39-.19-.08.18-.41.19-.58a12.81 12.81 0 0 1-1.85.48 9.06 9.06 0 0 1 1.75-.68c-1.41-1-2.5 1.41-4.1.4.6-.51 2.2-.53 2.35-1.18.3-.32 1.4.17 1.56-.3-1.13-.79-2.73.09-4.2.1 1.71-1.07 5.62-.86 7.91-1.46zm-35.85 34.1a.46.46 0 0 1 .06-.15s0 .1-.06.15zm364-11.92c3.81 3.82 6.78 8.46 9.87 13 .13-.65-.44-1-.19-1.47a2.73 2.73 0 0 1 1.95 1.18c-1-2.27-4.12-2.4-4.2-5.57 1-.51 2.18.72 2.83.88-1.59-1.21-4.17-3.57-5.75-5-.58-.5-1.91-2.81-1.86-2.24a16.46 16.46 0 0 0-2.85-2.54c.16.39-.41 0-.39.29a1.92 1.92 0 0 1 1.47 1.47c-.35-.15-.65-.48-.89 0zM205 142.8l.06-.06a.23.23 0 0 1 .06.09c-.67 1.78-2.39 3-2.15 5.38 0-.25 0-.59.29-.58-.06.39.26.4.2.78.2.21.31-.09.49.1a2.09 2.09 0 0 1 0 1.65c0-.11 0-.28-.1-.29.65 2.56.26 7.41-2.06 9.18.19.18.18-.06.49 0 .4.63.62 1.45 1 2.14-.31-.08-.3.16-.49.2a5 5 0 0 1 0 1.76 2.47 2.47 0 0 1 1.08 1.18A2 2 0 0 0 205 164a3.17 3.17 0 0 0-.39.68c.29.09.48-.42.58-.19-.13.15-.46.12-.39.48a1.54 1.54 0 0 1 .68 1.07c.41.16 0-.53.39-.39.33 1.79 2.22 2.28 2.54 3.81-.33-.1-.15.31-.19.49.13.24.29-.18.39.1-.19.24-.42-.18-.48.2.63.39.48 1 1.07 1.36-.18 0-.59-.13-.49.2 3.6 1.16 4.88 4.63 8.5 5.76 2.06-1.5 6.14-2.16 8.7-.78 1.56-.65 2.75-1.68 4.78-1.86 1.34-1.6 6.5-1.62 6.84.78a1.7 1.7 0 0 0 2.93 1.37 4 4 0 0 0 1.76.09c0-.14-.12-.5.1-.48a1.25 1.25 0 0 1 .19.58c.3.08.29-.16.59-.1-.08.41.15.5.09.88a1 1 0 0 1 .59.3c.31.12.07-.32.39-.2a6.26 6.26 0 0 1-.39 5.18c.56 0 .29.28.39.78-.19-.19-.18.06-.49 0a1.54 1.54 0 0 0 .68.88c-.46.13-.44-.22-.58-.39a2.87 2.87 0 0 1-.59 2 .38.38 0 0 0-.49-.19 2.7 2.7 0 0 1 .59 1.36c.12.24.29-.18.39.1.64 3 4.42 4.82 5 8.2h-.29a17.51 17.51 0 0 1 1.75 4.79.78.78 0 0 0-.59.48c.58 1.93 2.47 5.42-.1 6.64-.94 1.18-.87 4.12-2 5.47-.49 5.91 3.19 8.18 4.3 12.8a.6.6 0 0 1-.19-.1 34.47 34.47 0 0 0 1.07 6.54c.87 3.7 4.66 6.85 4.39 11a.52.52 0 0 1-.39-.1 1.5 1.5 0 0 0-.1.59c.6.19.79 1.55.87 2.44.28-.15-.16-.4.1-.49h.39v.49a3.22 3.22 0 0 1 .79.1c0 .81.68.48 1.07.78.45-.84 1.7-.9 2.64-.78 1.12-1.09 2.93-.67 4.5-.4.14-.5.85-.42 1.26-.2.18-.19-.06-.18 0-.48a2.66 2.66 0 0 1 1.46-.1c3.67-2 6-5.25 8.3-8.6 1.53-.78 1.86-3.23 2-5.19a.41.41 0 0 1-.2.31 3.52 3.52 0 0 1-.3-.49c.88-2 4.41-1.32 4.79-3.8-.14-.22-.24.12-.3-.1.29-.72.64-2.86.11-2.84-.26-1.36-.22-2.41-1-3.22.32-.14.06-.84.3-1.08 0 .08 0 .2.1.2.93-.4 1-1.68 2.25-1.76 1.72-3.58 7.14-3.24 7.41-8-.14-.21-.24.13-.29-.1.23-.16.1-.52-.19-.29.4-.4-.16-1.6.19-2.24-.17 0-.25.14-.29 0a1.46 1.46 0 0 0 .39-.4c-.78-2 .39-3.16-.29-4.4-.3.13-.6-.39-1.09-.58-.06-1.7-1-3.67-.19-5.47-2.72-2.13 1-4.66 1.18-7.52a4.23 4.23 0 0 0 1.26-.78.53.53 0 0 1-.2-.3c.28 0 .41-.18.69-.2 3.69-6.65 11.48-9.21 13.28-17.77a6.16 6.16 0 0 0 1.56-4.2c.79-.68-.12-1.83.49-2.74-1.82-.15-3.64 1.63-6.07 1.17-1.4 1.07-3.06.7-4.78 1.37a9 9 0 0 1-1.86-2.14c-.18 0-.65.25-.78 0a12.53 12.53 0 0 1 1.18-.69c-1-2.26-3-3.62-4.68-5.37-.31-.07-.3.16-.59.09-.22-.3-.18-.87-.59-1-.31.2.18.63-.09.77-1.19-2.41-1.37-5.81-3.81-6.73a11.56 11.56 0 0 1-.58-4.1c0 .11 0 .28.1.3 0-.59-.89-1-.69-2.06-1-.83-2.37-1.28-2.24-3.22.15-.06.5.11.48-.1-2.75-3-3.66-7.12-5.85-10.16.22 0 .09-.44.3-.49.73 1.5 1.24 3.24 2.83 3.91.46-.8.18-2.35.88-3.12-.21.47-.11 1.93-.49 2.53a3.68 3.68 0 0 0 .88 0c1.49 2.37 3.14 4.21 4 6.84 3.44 1 1.65 5.32 3.9 7.14 2.4.69 2.14 4.05 4.1 5.18v.49c1.13.5.69 2.2.89 3.21-.21-.2-.2 0-.3.2 1.19.82.75 3.29 1.66 4.5.67.34 1.65-.28 2.34-.1 1.25-1.47 3.9-1.78 5.76-2.34.87-1.8 3.7-1.66 5.28-2.74.08-.4-.16-.5-.1-.88 1.14-2.07 4.88-.77 5.08-3.22 2.08.31 1.38-2.53 3.42-2-.38-.87-.44-2.49.4-2.93a.6.6 0 0 1-.1.39.64.64 0 0 1 .48.1c.29-1.64 1.77-2.08 1.86-3.9-1.47-2.44-5.94-1.88-6-5.76.09-.35.41-.89 0-1.18-.9 1.08-2.17 3.32-3.34 3.89 0 .12-.18.08-.3.1a1 1 0 0 0 .28-.11c-.4-.27-.59.12-.47.21-.47-.18-1.28 0-1.76-.2-.09.4-.57.4-1.07.4a1.6 1.6 0 0 0-.2-.59c0 .11-.12.08-.1-.1a1.52 1.52 0 0 1-.59.1c.63-.64.17-1.73.3-2.73a2.08 2.08 0 0 0-.68-.59c-.7.48-.49 1.84-.48 2.54a20.64 20.64 0 0 0-1.36-2.54 2.75 2.75 0 0 1 .29.2c.48-.59-.69-.78-.1-1.17-.57-.24-.85-.87-1.37-.89a1.58 1.58 0 0 0-.19-.68 1 1 0 0 1-.68-.19c-.08-1-1.11-1.72-1.36-3-.32 0-.4.23-.49-.1.14-.47.59-.06.88-.38.09-.3-.41-.48-.19-.59.29.34.61 0 1-.1a1.31 1.31 0 0 0-.1-.58c.2.36.85.27 1 .68.37 0 .37-.41.78-.39.07.94 1.13.89 1.07 1.95.55-.08.32.16.3.49 1.09 2.06 3.36 2.41 4.88 3.91.75-.32.88.16 1.57.29.4 0 .68-.75 1.18-.39-.2 0-.43 0-.4.29.75-.23 1.2-.18 1.56-.78-.24-.33-.55.34-.79 0 1.86-1.23 2.09 1.4 2.55 2.25 1.44.19 3.66.85 5 .58a1.76 1.76 0 0 0 1.86.39v.3a5.25 5.25 0 0 1 2.73-.3c.37-.64 1.34-.11 1.86.1.38-.63 1.75-.28 2.45-.58a.89.89 0 0 1 .58 1.17 1.4 1.4 0 0 1 .88.1c.63 2 2.21 2.49 4.2 3.62a.83.83 0 0 1 1-.3c-.18.92-1.14.68-1.66 1.08 0-.46-.18-.08-.3-.39.28 1.95 4.07 4.87 5.18 1.56a.91.91 0 0 0-.49-.4c.5.09.22-.63.79-.68-.25.4.24.57 0 1 .14.19.41-.17.48.2-.31 0-.31.21-.29.48.18.19.18.08.09.4.91.77 0 2.8.58 3.9.08 0 .2 0 .2.1.63 2.41.91 4.63 2.15 6.34 1.23 2.77 3.28 7.25 4.4 10.64.21.64 1.2 2.21 1.95 2.25 1.43.06.94-2.9 3-2.06-.25-.26-.74 0-.88-.48.3-.4.39-1 .69-1.36a2 2 0 0 1 .77 0c-.28-2.64.4-5.36 0-7.73-.16-1-.59-2 .59-2.34a.57.57 0 0 0 .2.3 1.57 1.57 0 0 0 .67-1.08c.83.26 2-.37 1.37-1.17 2.42-1.29 3-4.44 5.86-5.28.28-.64.55-.82.79-1.36a2.28 2.28 0 0 1-.3-1c.16-.78 1.42-.46 1.66-1.17.18.18-.06.17 0 .48a4.56 4.56 0 0 0 1.46.1c-.24-.17 0 0 .2 0a1 1 0 0 0-.2-.58 4.47 4.47 0 0 1 .48.48c0-.45.76.13 1-.58.18.08.12.4.49.29a1.18 1.18 0 0 1 .47-.78c.06.14-.1.5.1.49.55-.37.18-1.11-.1-1.47-.18-.09-.32.3-.38 0 .24-.19-.22-.5.19-.58a2.32 2.32 0 0 0 .68 1c.35 0-.24-.37.1-.39 1.92.76 1.6 3.75 3.23 4.79a.37.37 0 0 0 .29-.2c-.08.25-.14.44.1.58 0-.31.38.31.4 0-.12 0-.34-.29-.1-.29a2.7 2.7 0 0 1 1.26 1.26c-.34.32-.41-.16-.68-.2 1.4 1.23 2.3 3.36 2 6.24a3.46 3.46 0 0 0 .39-.58.67.67 0 0 1 0 .68 1 1 0 0 1 .69.3c.22-.28.45-.16.67.1.38-1.26 2.49-1.19 2.06-2.93 1.56 1.8 1.76 4.45 2.73 6.73 0-.11 0-.28.1-.29.39.81 1 1.91.59 2.73a.45.45 0 0 0 .3-.09 3.18 3.18 0 0 0-.1 1c.18.09.33-.3.39 0a30.55 30.55 0 0 0-.48 7c.65-.08-.08-.93.48-1.07.15.71.88.45.68 1.17a.67.67 0 0 1 .59.88c.81.39 2.29 2.28 1.46 3.43.1.38.36-.34.4 0 0 .88.67 1.87.49 2.53 1.09 2 2.75 3.17 4.68 4.69.26-.71.85-.15 1.17-.2a4.55 4.55 0 0 0-1.36-2.74c.58-3.48-1.44-5.33-3.42-7.23-.85.41-1.23-.46-1.66-.48.2-1.3-.89-2.45-1.18-3.82a5.48 5.48 0 0 1-.88.2c-.73-2.48 1.34-5 .69-7.52.38-.06 1.15-.26 1.36.1v1.37a15 15 0 0 0 1.56-.1c.38.38.63.86 1 1.26.33-.07-.44-.33-.1-.39.71 0 1.12 1.27 1.37 2.35a.58.58 0 0 1 .48 0 .51.51 0 0 1 .19-.49 1 1 0 0 1 .2.58.88.88 0 0 0-.29.39c.46.3 1.63-.24 1.75.79a.71.71 0 0 1 .89.38c-.79.22-.18 1.93-.39 2.44 1.24 0 1-1.43 2.25-1.37.17-.35-.34-.5-.1-.58.16.13.36.43.58.2a.81.81 0 0 1 .39-.88c.1-.37-.33-.19-.39-.39.61.11.17-.28.48-.49.15.12.12.4.4.4 1-.52 1.78-1.35 2.83-1.86a5.42 5.42 0 0 0 .1-2.44.84.84 0 0 1 .3.3 14.57 14.57 0 0 0-2.44-6.45c-.37.35-.39-.7-.78-.2a35.05 35.05 0 0 1-4.11-4.88c.21-1 .24-1.85 1.19-2.24-.22-1 .32-.89.57-1a1.49 1.49 0 0 0-.29-.2 4.46 4.46 0 0 1 4.5-.88c-.79.53.43 2.93 1.26 1.76-.12-.42-.57-.52-.68-1 1.65-.7 2.74-2 4.89-2.15a1.72 1.72 0 0 0-.4-1.08c.3.07.29-.17.58-.1a8 8 0 0 1 .19.88c.38-.07.44.17.79.1.16-.31-.37-.4-.1-.48a2.73 2.73 0 0 1 .3.2c.18-.13-.22-.62.29-.59a.22.22 0 0 0 .2.39 1.88 1.88 0 0 1 .58-.49.43.43 0 0 0 .5.3c0-.15 0-.37.1-.39a1.39 1.39 0 0 1 .3.3 1.37 1.37 0 0 1 1-.38c-.06-.38.18-.69.4-.49a1 1 0 0 1 0-.68c.52.41.67-.8 1.07-.2.06-.17-.12-.57.1-.58 0 .08 0 .19.1.2a2.27 2.27 0 0 0 .39-.69c0-.2-.43 0-.39-.29.2 0 .2-.14.3-.2.41.23.4-.2.77 0-.1-.93.73-.9.69-1.76.15.11.41.35.49 0-.62 0 .22-.62-.1-.88-.34 0-.61.21-.79-.1 1.38-.18 1.55-2.52 1.57-3.42.52.18.27-.43.48-.58.12.15.09.44.39.39-.12-.55.32 0 .39-.29a3.25 3.25 0 0 0-.78-.78h.49c0-.18-.15-.26 0-.3 0-.38-.36-.31-.49-.48a.61.61 0 0 1 .78.19 1.18 1.18 0 0 0-.48-1.07c0 .1 0 .25-.1.1s.53-.34.3-.59c-.79.1-.74-.62-1.36-.68-.39 0-.38.35-.79.29a1.75 1.75 0 0 0-.2-.29c.61-.27.86-.91 1.57-1.08-.72-.87-2-2.06-3.23-1.76.91-.65 1.68.45 2.83.39-2.28-1.56-3.42-4.77-6-5.67a2.91 2.91 0 0 1 .88-2c-.19 0-.5-.27-.29-.3.28-.28.14.37.57.2-.08-.45.58-.72 0-1 1.23 0 1.26-1 2.25-.39a9.69 9.69 0 0 1-.1-1.08 1.48 1.48 0 0 1-1-.3c-.89.79-1.74-1-2.84-.1-.48 2.07-1.95-.28-2.54-1a.74.74 0 0 1-.2.29c-.75-.2-2.19-.79-1.86-2a3.9 3.9 0 0 0 1.76 0 1.12 1.12 0 0 0 0-.88 3.73 3.73 0 0 0 1.66-2.15c1.52-.15 2.49 1 1.46 2a2.92 2.92 0 0 0 .79.68c-.32.07-.14.26-.1.49-.36.07-.69.22-.49.58a4.55 4.55 0 0 1 .69-.1c.16-.2 0-.13 0-.4.71-.44 2.51-2.47 3.89-1 0-.11 0-.28.1-.29 1.31.23 1.48 1.74 1.09 2.93h.64c0 .27-.17.2 0 .39a1.17 1.17 0 0 1 .78.29 1.36 1.36 0 0 0 .29-.48.68.68 0 0 0 1 .2c.4.71.95 1 1.26 1.56-.63-.23-.26.25-.67-.1.22.52-.19 0-.2.48a.47.47 0 0 0 .68.2c.61 1.21 1.14 1.71.68 2.84.41 0 .34.5.58.68-.33-.2 0 .36-.29.59.4.13.34-.18.48-.3a1.64 1.64 0 0 0 .3.49c.13-.27.16-.47.48-.3 0-.28 0-.53.3-.49-.26.26.14.36.3.49-.1-.29.77-.61.1-.88a1.64 1.64 0 0 1 1.27.19c0-.26-.06-.57.2-.58a1.83 1.83 0 0 0 .49.2c.49-.46.3-1.14.2-1.86a15.42 15.42 0 0 0-5.87-5.86c0-.18.16.06.2-.1a6.2 6.2 0 0 0-.39-.58c.32-.17.35-.63 1-.48.48-.43.54-1.29 1.26-1.47a7.93 7.93 0 0 0-.78-1.46c.16-.6.28-1.29.89-1.18a1.56 1.56 0 0 0-.11-.49h.49a2.57 2.57 0 0 1 .08-.96c.22.38.35.41.79.2a.75.75 0 0 0 .39.68c4.53.9 4-5.54 4.88-9.76-.55-2.56-3.14-4.15-2.84-6.65a1.93 1.93 0 0 1-.88-.29c0-.86-.91-.78-1.36-1.18a1.82 1.82 0 0 0 .77.1c-1.25-1.1-3.15-2.43-5.25-2.1a1.28 1.28 0 0 1 .39.49c-.43-.07-.22.16-.2.4a1 1 0 0 1-1.07.19 1.18 1.18 0 0 0 .3-.48c-.28-.22-.89-.09-.69-.78a1 1 0 0 0-.69.19c-.08.37.67.38.41.59a.4.4 0 0 0-.3.1c-.53-.38-.68-1.15-1.28-1.46a2.05 2.05 0 0 1-2.24-.39c1.65-1.29 1.28-3.42 2.54-5a1.34 1.34 0 0 1-.3-.59c.47-2.23 3.5-2.22 5.57-1.46.3-.17-.27-.3 0-.4a8.44 8.44 0 0 0 3.32 0 .88.88 0 0 0-.49-.48 14.27 14.27 0 0 1 4.69.78 10.91 10.91 0 0 1-1.18.1c.47 1 1.92 0 2.55.3-.25-.15.61-.2.09-.4a10.72 10.72 0 0 0 2.34.1c-.14-.45-1.35-.93-1.46-.48-1.13-.35-.53-2.24-.2-2.84-1.17-1.18 2.18-1.21 2.95-.78.15-.07 0-.47.28-.4.53.4.66 1.18 1.19 1.57.3 0 .22-.31.57-.2a7.2 7.2 0 0 0 .4.78 3.89 3.89 0 0 0 .69-.39 1.61 1.61 0 0 1 .39-1.27 2 2 0 0 1 1 0 9.62 9.62 0 0 1-1.56-1.47 2.92 2.92 0 0 1 2.53.2 1.42 1.42 0 0 0-1.07 0c.28.9 1.08 1.27 1.66 1.86-.36.28.18.46.3.59a5.85 5.85 0 0 0-1.18.58c0 1.49-.35 3.06-.39 4.2a6.21 6.21 0 0 0-.79-.2c0 .37-.2.54-.68.4.2.55.88.61 1 1.27-.34-.18-.47.64-.3 1 1.92 3.51 7.57 6.42 10.06 9.48a2.68 2.68 0 0 0-.48-3.52c.37.22.46-.53 1-.49.13.08.51.39.59.2-.6-.45-2.16-1.35-1.19-2.34.58-.06.94.24 1.27-.1-.4-1.14-1.8-1.25-2.24-2.34.21-.35.39-.53 0-.78.3.16.39-.37.49-.1a1.75 1.75 0 0 1-.1.48 1.66 1.66 0 0 0 1 .3c-.11-1.6-2.85-1-2.54-2.74a2.18 2.18 0 0 0-1.37-.48c-.21.14.14.24-.09.29-2-.56-1.06-2.79-2.34-3.71a1.09 1.09 0 0 1 .87.3c.33 0-.38-.31 0-.39a2.71 2.71 0 0 0 1.18.49 1 1 0 0 0-.29-.49 1.16 1.16 0 0 0 .58-.58c.64.1.54 1 1.28 1a1.75 1.75 0 0 0 .1-.89c2-.82 3.46.51 5 .59a9.12 9.12 0 0 1-.69-.68c.72-.26.33-.58 1.08-.88.09-.32-.33-.14-.29-.39.45-.12.51-.87 1.46-1a.29.29 0 0 1-.2-.19c.54 0 .86-.79 1.76-.89.3-.17-.27-.3 0-.39a6.39 6.39 0 0 0 2.93.58c-1.4-2-5.16-2.65-6.84-3.71 1.25.35 2 0 2.45-.78a.85.85 0 0 1-.4-.39c-.29 0-.3.22-.59.2-.25-.56-1-.58-1.26-1.18.57.1 0-.37.39-.39.16.29.67.22.58 0a.86.86 0 0 1 .39.39c-.11 0-.28 0-.29.1 3.35.78 7.44 2.09 10.16 2.34.19.15.58.58.88.3a9.72 9.72 0 0 0-1.18-.78c.25-.06.5-.09.49-.38-.56-.29-1.12-.59-1.67-.89.64 0 1.28.55 2 .2a4.06 4.06 0 0 1-.78-.39 2 2 0 0 0 1-.11c-1.19-1.23-3.78-1.51-6.06-1.95-.1.46.74 0 .78.3-.86.28-1.56-.8-2.63-.3.55.44 1.6.41 1.85 1.18-6.51-3.39-13.61-4.88-22.27-5.38.08 0 .19 0 .2-.1-1.29.24-2.35-.49-3.82-.4.68.91 1.93 1.27 3 1.76-1.64.62-3.75-.71-5.28-1.17-2.73.63-6.24 0-9.18 0-1-1.82-4-2-6.65-1.86a35.5 35.5 0 0 1-6.84-.39c-.43-.59-1.64-.43-2.43-.68a2.2 2.2 0 0 1 .78 0c-.83-.58-3.65-1.55-4.31-.22a.58.58 0 0 0-.08.2c-.49-.12-.95.27-1-.2a.48.48 0 0 0 .67-.39.3.3 0 0 0 .38.39c-1.06-1.68-5.48-.81-7.9-1.45 0 .37.6.24.77.49a4.92 4.92 0 0 1-1.36.09c-.08.47.2.58.59.59a.58.58 0 0 1 .67-.2 1.89 1.89 0 0 1-.39.49 2.63 2.63 0 0 1 1.28.58 8.29 8.29 0 0 0-2-.1c-.14.43.28.31.4.48a2.62 2.62 0 0 1-1.19-.29c.4-.1.69.3.69-.2-.45 0-1.19-.1-1.07.2a6 6 0 0 0-1.67-.4c-1 1-3.11-.18-3.9-.29 0 .85.91.94.29 1.66a11.92 11.92 0 0 1-3.9-1.37c.14 0 .5.12.49-.09-.27 0-1.11-.54-.69-.1a2.43 2.43 0 0 1-1.36-.49c.4 0 1.1.47 1.36 0-.26-.46-1.11-.32-1.66-.49a1.43 1.43 0 0 0 .49-.29c-.6 0-.65 0-.2-.2a1.81 1.81 0 0 1-1-.1.26.26 0 0 0 .3-.19 20 20 0 0 0-7.22-.79c.24.43 1 .32 1 1-1.52-.3-5.27.19-5.67-.88-1.88-.08-4.29-.65-5.85.1-.4-.24-.91-.85-1.37-.68a.54.54 0 0 1 .39.3c-.53.21-1.88 0-1.86-.4-.45.2-1.76-.4-1.76.48.34.24.92-.3 1.29 0a15.8 15.8 0 0 1-4.11.79c0 .19.14.19.2.29-.3 0-.3.23-.59.2a.73.73 0 0 0 .2-.68c1-.29 1.76-.91 2.84-1.18.09-.32-.33-.13-.29-.39.91-.4 2.19-.41 2.44-1.46a1.24 1.24 0 0 1-.68-.79c-.61.31-1-.61-1.57-.29.16-.07.42.19.2.19-1-.91-5.19-1.46-6.16-.67a7.6 7.6 0 0 1-1.26 0 1.61 1.61 0 0 0 .39-.59c-1-.23-2 .06-2.74-.3.15-.22.77.06.79-.29-1.53-.28-3.34-.8-4.5.1a.82.82 0 0 1-.3.58 6.44 6.44 0 0 1 1 .58c-.81.1-1.81-.15-2.34 0a3.62 3.62 0 0 1 .68.3c-.53 0-1.38 0-1.46.39a5.48 5.48 0 0 0-1.66.1.27.27 0 0 0 0-.39c-1.36.14-2.49-.1-3.22.39.37.28.53-.37.67.2-2.44-.18-4.35.69-5.76 1 .15.15.56 0 .48.39-.42-.07.09.2-.19.2s-.47-.31-.88-.29c0 .18-.12.21-.1.39.37.06 1-.16 1.07.2-.25 0-.56-.06-.57.2.48.3 1.48.07 1.76.58-2.13.25-4.48.29-6.74.39.16.37-.06.16-.1.49 1.13 1 2.81 1.42 4.19 2.15-2.39.23-4.08-1.73-6.15-.59a7.63 7.63 0 0 1 1.07.39c-.67.26-1.43-.49-2.24-.1.48 1.32 2.63.55 3.23 1.36a36 36 0 0 1-3.62-.49c-.36-.51-.48-2.63-2-2 .3.23.83.21.88.68-.39.6-1.55.41-1.57 1.36.75.4 1.74.56 2.15 1.28-.57 3.6 5.08.86 6.35 3.32a1.83 1.83 0 0 0-.57.48c.26.48 1.11.39 1.66.59a5.15 5.15 0 0 1-1.76-.3c.3-1.54-2.8-2.38-3.82-1.17.11.6 1 .44 1.08 1.07-.19.51-.64.67-.39 1.37a12.15 12.15 0 0 1-1.38.58c0 .18.3.41 0 .49a9.42 9.42 0 0 1-4-.79c1.3 0 2.12.24 3.22-.38a2 2 0 0 0 .1-.78 7 7 0 0 1 .67-.3c-.08-.4-.51-.83-.09-1.17-1.52-.37-2.09-1.69-2.84-2.84.45-.82-1.17-1.23-1.66-1.76.73-.4.22-1.41-.2-1.76-1.23-.14-2.55-.19-3.81-.29.24 1.55-1.21 2.1-1.36 3.22a2.08 2.08 0 0 1 .79 0 3.19 3.19 0 0 0 .48 1.17 1.65 1.65 0 0 0-.48-.1c0 .28.18.41.2.69 1.49-.36 2 1 3.32 1.17a1.11 1.11 0 0 1-.4.88 6.19 6.19 0 0 0-3.52-1.18c0-.14.12-.16 0-.29a3 3 0 0 1-1.26-.1c-.38-.84-4.05-.89-5.48-.68 0 .83 1 .59 1.17 1.27a5.37 5.37 0 0 0-1.07.39c.1.1.36 0 .3.3a.84.84 0 0 1-1-.2c.06-.2.3-.2.1-.4a9.12 9.12 0 0 0-5 .88c-.47-.23-1 .21-1.26-.19.69 0-.15-.32 0-.69a2.72 2.72 0 0 1 .49-.3c-2.51.14-3.91 1.74-6.17 1.56-.08.32.33.14.3.4a3.13 3.13 0 0 0-1 .2v1.08a3.67 3.67 0 0 1-3.32-.88 2.2 2.2 0 0 1 1.85-.49c-.53-1.47-2.85-1.28-4.4-1.27 1 .27 1.76.95 1.28 2.15 1.2.09.84 1.31.88 2-.34-.76-1.61-.6-2.45-.88-.65.74-1.93.87-2.53 1.66.27.57 1 .65 1.17 1.36-.87.08-1.83-.48-2.73-.19.3-.45-1.07-.72-1.76-.78.07.34-.06.46-.4.39a1.54 1.54 0 0 0 1.86.88c.09.27.3.41.4.68-1.78.46-2.67-.78-4.11-1a1.33 1.33 0 0 0-.78-1.27c.38 0 .31-.35.48-.48-.2-.67-.93-.82-1.76-.88 0-.83-1.3-.47-1.75-1.37 2.55.76 8.76 3.21 10.74 0-.52-.6-2-1.65-2.44-1.36-2.34-.71-4.71-2.44-7.62-1.76a.44.44 0 0 1 .1-.3 1.85 1.85 0 0 0-.69.1c.31-.49-.69 0-.67-.39h.77a1.28 1.28 0 0 0-1.86-.1 2 2 0 0 0-1.65-.2 1.18 1.18 0 0 1-.61-.47c.8.16.95-.35 1.65-.29-.6-.78-1.75-.64-2.64-1-.35 0-.26.52-.58.58-.13-.07.09-.3-.19-.39a.38.38 0 0 0 .39-.4 1.64 1.64 0 0 0-1.57.2c.15.22.25-.13.3.1-.41 0-.3.61-.77.58a2.91 2.91 0 0 0 0-.78c-.94.16-1.15 1.23-1.76 1.17a2.63 2.63 0 0 1 .87-1.07 4.44 4.44 0 0 1-1.56-.2c.13.4 0 .26-.3.2.27.78-1.43.74-1.07 1.36a2.32 2.32 0 0 0-2.35-.3 1.56 1.56 0 0 1 .88.4 1.29 1.29 0 0 0-1.66.49 1.1 1.1 0 0 1 0-.59c-.76.33-1.66.24-2.25.88a1.44 1.44 0 0 0-1.66 0c.1.44 0 .26-.1.58.52.14.5-.28 1-.19-.3.73-1.35.69-1.66 1.18-.12.29.43.4.2.48s-.14-.32-.29-.4c-.26.38-.73 0-.88.48.17 0 .57-.26.68 0-.44.16-1.31-.14-1.27.49.43.19.6-.36.78-.1a2.3 2.3 0 0 0-1.46 1.08.82.82 0 0 0-.78.2c.38 0 0 .08.1.29-.36-.32-.41.25-.68.3.27.1.28.67-.3.58 0 .2.13.2.19.3a1.84 1.84 0 0 0-1 1.28 1.45 1.45 0 0 0-1 .68c.32-.24.45.28.19.39a1 1 0 0 1-.49-.29c-1.18.63-1.45 1.95-2.83 1.95-.24.13.11.37-.09.4-.83.46-1.72-.12-2 .68.16.15.55-.14.69.2a6.89 6.89 0 0 0-1.56 0c-.11.31.15.24.2.39a.46.46 0 0 0-.59.4 1.25 1.25 0 0 0-1.07 0 .69.69 0 0 1 .29.2c-.36 0-.28.18-.1.29-.18 0-.21.11-.39.1-.1.37.37.16.29.49-.54.58-.07 1.22 0 2 .19.33.42-.24.49 0s0 .59.2.88a1.08 1.08 0 0 0-.69 0 1.82 1.82 0 0 0-.09.48c.43.38.65 0 1.17.1a.63.63 0 0 0-.3.59 1.76 1.76 0 0 1-.48-.1 2.18 2.18 0 0 1-.1.48 2.49 2.49 0 0 0 1.57.88c-.12 0-.24 0-.2.2a3.8 3.8 0 0 0 4-1.66c.31.4.63 0 1-.1.21-.28-.17-.56.2-.68a2.05 2.05 0 0 0 .2.68h.58c-.15 1.34.84 3 2.25 4.3-.47.08-.27.33-.29.49a.94.94 0 0 0-.3-.11 3.26 3.26 0 0 0 .1.39c-.49-.24-1.22.39-1.66.2a.72.72 0 0 1 .29.2c-.23.13-.55.16-.78.29.19.16.53.46.2.59.26.37.54.1.88.39-.18 0 0 .11.1.2a2 2 0 0 0-.3.2c-.28 0-.64-.43-.78 0 .12 0 .06.1 0 .2a6.91 6.91 0 0 0 1.37.29.55.55 0 0 1 .69-.58c.09-.47-.55 0-.49-.2-.2-.49.5-.09.4-.48 0-.19-.38-.08-.3-.4.71 0 .24-.62.59-.78.09.3.37.4.48.69-.32-.1-.14.32-.3.38a3.26 3.26 0 0 0 2.06-.2 1.34 1.34 0 0 1-.2-.68.62.62 0 0 1 .68-.1c0-.17-.14-.26 0-.3a4.89 4.89 0 0 1 1.47.1c.62-1 1.08-2.25.78-3 .37.1.34-.59.11-.88.46 0 .18-.13.09-.3.59 0 1-.74 1.36-.29.19-.61.66-.38 1-.89a.88.88 0 0 0-.49-.19 3.36 3.36 0 0 0 .88-.58c-.33-.78-.94-.68-1.37-1.37-.49.21-.4-.17-1-.1.11-.33-.37-1.17-.1-1.66.48.36.3 0 .1-.39a4 4 0 0 0 .38-.49.36.36 0 0 1-.38-.39c.22.24.38 0 .68 0-.06-.31.19-.3 0-.48.28.29.31-.19.68-.1.84-1.24 2.59-1.08 3.51-2.54a1.45 1.45 0 0 1-.48-.58c.54-.46.39-1 1.26-1.08.06-.14-.11-.5.1-.49.91.3 4-.29 3.42 1.47a9.42 9.42 0 0 0-3.42 2.64c-.31-.21-.55.09-.78-.1.09.61-.37.67-.49 1.08.88.71.45 2.35.87 3.42.55-.24 1.12.54 1.76.39a8.34 8.34 0 0 0 .29.79 30 30 0 0 1 6.84-1.28.94.94 0 0 1-.2.2c.43.64 1.91.24 2.35.88-.53 0-.89-.16-1.37-.2a1.38 1.38 0 0 1-1.47.4c0 .3.32.38.11.58-2.65-.39-4.59-.47-6.16.78.71-.06.58.71.88 1.07a1.28 1.28 0 0 0 1.08-.09 3.05 3.05 0 0 0 0 1.95c-1 .85-1.82-.27-2.35-1-1.32 0-1.33 1-2 1.57 0 1.42.79 3.3-1.17 3.12.3 1.13-2 1.51-2 .2-2.55.18-5 2.33-6.65 1.07a2.38 2.38 0 0 1 .59-.19.22.22 0 0 1-.09-.4c-.39.14-.31-.21-.58-.19a1.21 1.21 0 0 0-.2.48c-.65-.27-1.7.35-2.25.78a4.67 4.67 0 0 1-.88-.2c.54.06.38-.59.78-.68-.53-.07-.93.36-1.75-.1.12-.46-.22-.44-.4-.58h.49c0-.6-.72-.15-.79-.49.6.13 0-.38.29-.48a1 1 0 0 0 1.46.58 1 1 0 0 0-.29-.87c-.16.12-.77-.12-1 .19 0-.19-.13-.19-.2-.3a.83.83 0 0 0 .78-.78 1 1 0 0 0 .59 0 2.38 2.38 0 0 1 .29-.48.85.85 0 0 0-.78-.2c-.38-.73.46-1.12.09-1.86.16 0 .27-.13.1-.2-.8.81-2.36.84-3 1.77a.53.53 0 0 1 .39.29 1 1 0 0 1-.48-.29 2.75 2.75 0 0 0-.09 1.07c0 .17.34-.13.29.3-.18 0-.26.31-.29.68a1.3 1.3 0 0 1 .68.2 1.74 1.74 0 0 0 .48 1.56.71.71 0 0 0-.59.29c.54 0 .48.45.49.79a1.79 1.79 0 0 0-.49-.1c-.25.12.08.58-.09.58a5.13 5.13 0 0 0-1.67-.39 7.3 7.3 0 0 0-.39.78c.07-.66-1.13.15-.87-.4-.24.34-.6 0-.88.2.11 0 .28 0 .29.1-.64.08-.73.7-1.36.78-.06-.18.29-.41 0-.49-.4 1-.58 2.16-1.66 2.45-.1.36.44.08.39.39a1.09 1.09 0 0 0-.68-.1c-.44.83-1.69.86-2.64 1.18.35 1.59-.92 1.7-2.05 2-.16.23 0 .53-.09.59-.52.29-1.12-.09-1.76 0a2.67 2.67 0 0 0-.09-.59c-.3.27-.79-.11-1 .11a2.52 2.52 0 0 1 .49 1.75 3.91 3.91 0 0 0-1.66.2.81.81 0 0 0-.59-.58c-.8.57-1.74 0-2.25.77a.72.72 0 0 0 .59.49c0 .28-.6-.08-.59.2a1.47 1.47 0 0 1 .69.49 1.4 1.4 0 0 1 1.56.48c.25-.4.28.15.78 0-.21.52.37.29.48.48a1.8 1.8 0 0 1 0 .78c.72.84 1.89.7 1.08 1.86a1 1 0 0 1 .68.58c-.2 0-.45-.66-.49-.19s-.46 1.4-.1 1.36c-.32 1.22-.83 3.24-2.54 2.15-2.83.58-7.78-1.67-9.28 1a.49.49 0 0 1 .2.68c.18.1.33-.29.39 0a14.39 14.39 0 0 1-1.57 6.85c.41-.12.44.15.4.48a1.67 1.67 0 0 0 .48-.1c.29.79-.26 2.08-.19 2.64a2 2 0 0 1 1.56 0c2.1-1.43 1.82 1.52 3.42 1.76.57-1.55 3.77-1.31 5.08-1.27a2.12 2.12 0 0 1 2.15-1.56c-.53-.67.82-1.61 1.37-2.14-1.57-1 .24-2.85 1.17-3.42a.76.76 0 0 1-.29-.2c1.17-.68 2.68-1 3.71-1.86a.81.81 0 0 1 .1-.78c-.82-.75.2-2 1.18-2.14 2.24 1.45 4.73.18 6.83-1.57a9.83 9.83 0 0 1 2 1c-.08.76.52.85.39 1.65a1 1 0 0 1 .88 1c1.35.25 1.72 1.48 2.74 2.06a3.26 3.26 0 0 1 1.17 0 6.43 6.43 0 0 0 .39.78.43.43 0 0 1 .49 0c.09.19-.29.33 0 .4 0-.23.52 0 .59-.2a1.2 1.2 0 0 1 .19.88c.49 0 .52.46 1.08.2a19.14 19.14 0 0 1 .78 2.24 1.86 1.86 0 0 1-.49.2.54.54 0 0 1-.19.78c-1.09-.15-2.62 1-3.52 0a3.59 3.59 0 0 0-.58.39c-.11-.09 0-.36-.3-.29a1.22 1.22 0 0 0-.39.87c1.48.42 2.62 1.68 4.1 1.76-.36-.26.26-.38.19-.68-.58-.62 0-1.48.39-1.95a.63.63 0 0 0 .1.48h.68c0-.6.48-.62.68-1a1.69 1.69 0 0 1-.1-.58 1.45 1.45 0 0 1 .88-.2v-.88c-.24-.28-.73-.31-1-.58a2 2 0 0 1 .78-1.37 1.24 1.24 0 0 0 1.18.39.94.94 0 0 0 .78.88 1.32 1.32 0 0 1 .19-.68c-.86-1.27-2.62-1.61-3.91-2.45.06-.3.53-.19.39-.67-2.15.29-3.33-1.15-3.71-2.94-.83-.53-2.08-.65-2-2.14.22.23.3-.13.39-.3a.78.78 0 0 1-.49-.69.15.15 0 0 0 .1-.19 1.47 1.47 0 0 0 1.26-.48c.35.38.58-.25.79.29-.19 0-.42 0-.39.29a1.42 1.42 0 0 0 .68 1.09 2.12 2.12 0 0 1 .49-.49c.16.24-.11.71.29.88a1 1 0 0 0-.39-1.08c.15 0 .08-.31.39-.2-.15.45 0 .59.4.69.13-.23-.25-.38 0-.4.09.28.26.92 0 1 .51.72 1.2 1.28 1.75 2a.86.86 0 0 1 .88.09c-.6 0 .14.36-.29.49.64.26 1.42-.2 1.66.38a1.23 1.23 0 0 0-1.28 0c.38.22 1.44-.3 1 .3.34.13.8.13.3-.1 1.34.29 1.95 1.31 3 1.86-.34.61-.05 2.08-.29 2.34.08.61.85.52 1 1.08a.49.49 0 0 0-.49.2c.36.14.32.66.78.68 0-.32-.43-.28-.39-.68a6.43 6.43 0 0 1 1.37 1.56c-.31 0-.32.21-.3.48.36.11.15-.37.49-.29a1 1 0 0 1 .29.78 1.31 1.31 0 0 1 1 0 1.65 1.65 0 0 0-.88.78 3 3 0 0 1 .88 1c-.35.28 0 1 .4 1.07.24-.11-.2-.37.1-.48.54.08.45.78.78 1.08 0-.33 0-.69.3-.69.2.16.44.79.77.49-.36-.43-.38-1.25-.77-1.86a1 1 0 0 1 .67.49c0-.3.49-.1.49-.4a.73.73 0 0 0-.59-.3.39.39 0 0 0-.2-.48c.32.07.3-.17.59-.1a8.69 8.69 0 0 0 1 .58c.08-.44-.37-.81 0-1-.06-.09-.52-.24-.29-.3.46.08.28.82 1 .68-.08-.57-.77-.52-.68-1.27-.9.18-1.06-1-1.66-.49 0-.34-.5-.37-.2-.68.25.06.5.28.29.43l-.09.06.09-.06c.88-.61-2-1.85-.38-2.68-.55.54.78.46.67 1.17a1.82 1.82 0 0 1 .49.1c0-.4-.63-.15-.49-.68.47 0 .48.49.89.58.3-.36-.39-.34-.4-.68.55-.1.57.34 1 .39a.89.89 0 0 0-.72-.59c.13-.41-.5-.28-.2-.58 1.25-.09 1.68-.46 3.22-.1.1.13.1.37.2.49a2.47 2.47 0 0 1 1-.1 1.66 1.66 0 0 1-.78.39 1 1 0 0 1-.1.59c.12 0 .28 0 .3.1-.55-.12-.2.64-.3 1 .47.12.88-.35 1.17-.1-.06.23-.32.27-.39.49.58 0 .1.59.62.67-.22 0-.09.34-.44.21 0 .38.57.39.3.68-.53 0-.2-.49-.78-.58-.17.4.5.61-.1.58a.47.47 0 0 0 .78.3c0 .44.55.23.69.48s-.21.32-.3.48c.36.14.22.18.3.59.3-.14.38 0 .58.2 0 .38-.56-.2-.49.39.17.13 1.31-.11 1.47 0-.24.39-1 .2-1.28.58a2.17 2.17 0 0 0 1.08-.2c-.13.24 0 .22-.2.4a3 3 0 0 0 .79-.48c.26.25.55.51.87.19-.21.38.2.2.1.69.35.11.63.28 1 .39a1.08 1.08 0 0 1 1.08-.19c.18-.28 0-.92.2-1.18 2.15.17 3 2.26 5.08 1.18a1.42 1.42 0 0 1 .87-1c.57 0 .66.45 1.28.4a1.26 1.26 0 0 1 .88-.58 1 1 0 0 1 .1.29c-.06.41-.55.37-.59.79.43.78.12 2 .59 3-1.19 2.21-1.54 7.85-5.09 6a.19.19 0 0 0-.09 0 .25.25 0 0 1 .09 0c.1.09-.21.22-.29.25.1-.37-.33-.2-.4-.4s.3-.4 0-.48c-.31.44-.79 0-1.17-.1-.17 0 .13.34-.3.3a.94.94 0 0 1-.1-.2 7.64 7.64 0 0 0-2.24 1.27c-2.2-.28-3.71-1.66-6.16-1.17-.1-.32-.28-.56-.4-.88-.95-.1-2.67.1-2.83-1.08-2.13-1.4-6 .18-4.49 3a2.18 2.18 0 0 1-1.57 1.18c-1.37-1.91-5.6-1-6-3.9-1.26 0-1.75-.79-2.93-.89-1.19.68-1.89-.49-3-.48a1.71 1.71 0 0 0-.59-1.27c-.27.06-.15.51-.49.49a1.18 1.18 0 0 1-.68-1c.78-.61 1.83-1.17 1.56-2.54a1.19 1.19 0 0 1-.88-1.26c.57-.06.57-.67 1-.88-.09-.17 0-.52-.29-.49a1.48 1.48 0 0 1-1 .58c.3-.26-.34-.47 0-.77-1.36-.8-2.09.76-3.71.58a.76.76 0 0 0-.79-.39c-.13.55-.89.17-1.17 0a6.08 6.08 0 0 1-1.76.78 9.15 9.15 0 0 0-7.92 1.47c-1.61-.42-3 2.63-4.4.68-1 .73-3.3.71-3.61-.88a.7.7 0 0 1-.69.2c-.83 4.58-6.43 4.18-6.54 9.28.58 2.28-2.29 4.39-4.88 4.78-.72 1.11-.94 2.71-2.45 3a8.6 8.6 0 0 1-2.31 4.41l-.06.06-.27.23c.16.08.22-.13.27-.23zm72 57.67c.14-.12.15-.37.3-.48-.4-1.65-2.6-2.78-1.86-4.6-.65-.74-.45-1.81-.2-2.83a.45.45 0 0 0-.2.48c-.24-.44.14-1.11 0-1.76.63 1.62 1.29 3.56.87 5.18 1.4.82 1.52 2.89 2.15 4.5-.37.1-.55-.67-1.07-.49zm7.31 10.53a1.82 1.82 0 0 1-.48-.68c-.24.07-.08.52-.49.39-.14-.57.3-1.09-.39-1.36-.44-2.35.31-4.69-.39-7 .88.82 1.88 4.37.78 4.4.41 1.37.3 3 1 4.29zm-4.79-25.49c.3-.23 1 0 1-.59.34.58 1 0 1-.29.2-.31.3.29.4.39a.24.24 0 0 0 .3-.3c.08.07.21.55.39.2a2.9 2.9 0 0 0 .58 1.08c.18 0 .22-.17.2-.39.21.25.38-.26.58 0a.92.92 0 0 1-.88.48 1.7 1.7 0 0 0-.29.4c-.07.3.27.19.19.48-.71.75-.55 1.2-1.36 1.76 0 .31.29-.25.3.09.28.16-.37-.11-.4.2a.72.72 0 0 0 .88.1c-.56 1.1-1.12.26-2.14.58a3 3 0 0 1-.2-.39c-.2 0-.13.27-.4.2.2.44-.17.13-.29.58-.21-.12-.1-.93-.39-1.18.58-1.11.16-2.55.58-3.41zm-9.77-107.94a2.19 2.19 0 0 1 .88-1 6.11 6.11 0 0 1 2.84 1.66 4.45 4.45 0 0 0-.39.88c-.4 0-.49-.23-.88-.2s-.19.33-.19.59c-.18.09-.34-.3-.4 0a5.2 5.2 0 0 0-1.86-2zm13.18 34a1.47 1.47 0 0 1-.48-.78 2.76 2.76 0 0 1-1.18 0c-.73-1.22-4.88-.46-5.66 1.08-2.78.13-4.85-.59-5.66-2.45.22-.1.18-.46.58-.39a1.25 1.25 0 0 1 .3-1.28.43.43 0 0 0 .58-.09c-.28-1.53.32-1.81.2-2.64.28 0 .17.29.1.48.3-.13.66-.18 1-.29a1.61 1.61 0 0 0-.2-1.37 1.82 1.82 0 0 0 1.47-1.56 5.75 5.75 0 0 0 .88-.2.87.87 0 0 0 .88.39 2 2 0 0 1-.48.29c.1.28.42 0 .57 0-.31.42 1.79.24 2.25.3 0 .14 0 .28.1.3-.51.33-1.34.36-1.56 1a9.35 9.35 0 0 1 1.56.49.72.72 0 0 1-.2.88c.84 1.13 1.48-.62 2.35-.3.16-.24.44-.35.59-.58a2 2 0 0 0 1.35.1c-.17-.34 0-.43.2-.59-.37-.47-1 .18-1.18-.19-.26.46-.64.21-1.07.19.32-.95-.81-.41-.79-1.36a2.23 2.23 0 0 1 .4.59c.29-.18-.22-.36-.1-.69a16.62 16.62 0 0 1 6-1.76 2.92 2.92 0 0 1-2 1c.06.59.79.5 1.07.88a1.06 1.06 0 0 0-.88 1.46 3.09 3.09 0 0 1-1.27-.2c-.14.16.25.41-.2.49 2.76 1.07 4.73 3 7.52 4.3 2 4.29-5.14 2.9-7 2.54zm23.94 8.3c-1.34 0-1.9-1-2.83-1.46-1.72-.87-2.62-.66-2.25-3.12a.24.24 0 0 1 .1.39c.54.19.08-.95.49-.58-.34-.41 0-.89-.1-1.56a1 1 0 0 1 1.26-.1 1 1 0 0 0-1.26-.68c-1.06-2.19-3.91-2.85-3.82-5.67a6.64 6.64 0 0 1-1.56-1.46 2.84 2.84 0 0 0 1-1.86c.64.33.81-.48 1.46-.19a1.52 1.52 0 0 0-.09-.49 18.69 18.69 0 0 1 3.12-1.76c.51.1.86.38 1.36.49 2.55-1.5.85 3.85 3.22 2.34a3.29 3.29 0 0 1 .59.88 1 1 0 0 0-.69 0 .94.94 0 0 0 .3-.3c-1.34-.13-4-1.06-4.39.3a1.37 1.37 0 0 0 .67.68c-.33.4-.77-.35-1.56-.1-.12.64.32.72.89.68.2.81 1.09.94 1.07 2a.81.81 0 0 1 1 .58 1.72 1.72 0 0 1 1.28.2c-.57 1.71 1.09 3.13 1.17 5 0-.28.32-.14.78-.1-.13.43.34.45.1.68-.21 0-.19-.14-.2-.29a.64.64 0 0 0-.1.88c.16 0 .09-.31.39-.2a1.59 1.59 0 0 0 .88.68 8 8 0 0 0 .58 3.62c-1-.14-1.84.56-2.84.58zm69.47-28.42c-.43.19-1.06.18-1.08.77a.74.74 0 0 0-.69 0 3.1 3.1 0 0 1 .1 1 3.43 3.43 0 0 1-2.92.19c1.61 0 2.19-1.07 2.92-1.95.47-1.17 1.22-3.58.49-4.89a.84.84 0 0 1 .59-.09c.33.87 1.74 3.88 1 3.12-.32 0-.42.22-.38.58 0 .17.69-.21.68.2a1.39 1.39 0 0 0-.68 1.08zM246.7 50.81c0 .39-.6.18-.79.39.82.58 2.38 1.47 3.52.58-.12 0-.28 0-.29-.1a.66.66 0 0 0 .19-.2 1.93 1.93 0 0 0 2.06 0 1.48 1.48 0 0 1-.3.4c-1.07.06-1.78.57-2.83.39-.18.87 1.18.19 1.37.68-.13.27-.92-.33-1 .2a3.46 3.46 0 0 0 1.86.58c0 .34 1 .77 1.66.49 0-.2-.13-.2-.2-.3.61-.11.31-1.13 1.26-.88a3.68 3.68 0 0 0 .1-.68h.59c.06-.18-.12-.57.1-.59.64 0 1.3-.46 1.86-.1a1.54 1.54 0 0 0-.89.1 11.89 11.89 0 0 0 1.57.78 1 1 0 0 0-.68.59 6.52 6.52 0 0 0 1.75-.2.62.62 0 0 0-.1.48 12.49 12.49 0 0 0 2.44-.77c-.57-.36-1.38.1-1.85-.4.11 0 .28 0 .29-.1a3.22 3.22 0 0 0-1.27-.1c.2-.72-.72-.33-1-.59.12 0 .23 0 .2-.19-1.23-.33-2.73-.16-3-1-.49-.2-.74.36-.87.2-.09-.32.32-.14.29-.4-.88-.36-1.24-.1-2.06-.39a.27.27 0 0 1-.19.3c.08.51.83.86.78 1.18-.8-.43-1.48-1.56-2.54-.88-.13.25.39.31.1.38a1.1 1.1 0 0 0-.68-.29c.14-.22.64-.08.68-.39-.5 0-1.89-.06-2 .2-.38-.45-.87.08-1.37.1a.73.73 0 0 0 1.18.49zm242.47 201.73c.44-.43.39-1.32.79-1.56-.15-.2-.4.15-.3-.4-.46-.19-.3 1.14-1 1.28.38-.39.07-.63-.38-.68a14.09 14.09 0 0 0 1-2.84c-.38-.08-1-.87-1.17-.68-.48 0 .1-.69-.1-.88-.76.56-.51 2.28-.3 3.62.4.11 0-.66.4-.3-.1.24 0 1-.3.39-.1 3-2 4.08-3.91 5.28a5.08 5.08 0 0 0 1.18 1.08c-.27 1.24-1.4 1.59-2.24 2.24 0 .57.87-.07.48.59 3-.51 4.58-4.35 6.75-4.21.93-.88 1.88-1.76 2.83-2.64v-.2c-1.31-.35-2.47 1.27-3.72-.09zm-59.69-52.27c-1.86 0-4 .34-4.88 2-.12-.31-.2 0-.48-.2-.39.19-1.1 1.12-.48 1.37-.28 0-.55.1-.49.48 2.35-.75 4.15-2.43 6.34-3.62zm34.49-3.9c.28 0 .3-.23.59-.2.79 1.14 3.24-.15 3.41-.88a1.11 1.11 0 0 0 1-.2c.1-.46-.31-.4-.2-.88.68.4.67-.67.78-1.17-.25.06-.35 0-.29-.3-.36-.06-.3.31-.59.3 0-.3-.34-.25-.58-.3-.07.58.29.75.19 1.37-.87-.13-.95.54-1.26 1a3.4 3.4 0 0 0-1.17.1.73.73 0 0 1 .1-.87c-.47-.23-.31.82-.59.87a13.42 13.42 0 0 1-2.44-.1v.59a1.22 1.22 0 0 1 1.08.68zm-40.54-9.48a1.33 1.33 0 0 0 .39.39 1.55 1.55 0 0 0 .2-.78c-.21-.37-1.49-.1-1 .15h.1-.1c-.89-.33-1.36.67-2.06.14a4.38 4.38 0 0 0-.77 1 1.6 1.6 0 0 0-.69 0c-.12-.35 0-.36-.1-.68-1.15-.27-1-2.1-.2-2.64 2.25-.16 4.16.47 6.44.09.23-.85 1.22-1.33 1.09-2.24a.58.58 0 0 1-.4-.09c-.36.28-.06.58-.69.58-.74 1.73-3 .53-4.78.58V183c-.43.28-.52-.2-1.07-.09a1 1 0 0 1-.49 1c-.26 0-.08-.38-.39-.3-.31.37-.45.91-.78 1.27-.08.31.26.2.19.49s-.38-.39-.38.1c.36.13.09.88.3 1.17-1.32.3-.46 3-1.76 3.62.34.39-.2.91.2 1.46.27 0 .5-.14.77-.19.62 1.39-.1 2.21-.2 3.8a6.46 6.46 0 0 1 .69.3c.19-.5.85-.23 1.07-.3-.61-1.4.57-3.12-.19-4.68.39-.19.79-.86 1.26-.4a1.82 1.82 0 0 1-.39 1.37 4.43 4.43 0 0 0 1.17 1.07 1.85 1.85 0 0 0-.2 1.18 1.63 1.63 0 0 0 1 .2c-.41-.87.81-.72 1.26-.79v-.67c-.46.08-.43-.53-1-.79.46-.32-.13-.55.38-.68a22.75 22.75 0 0 0-1.66-2.54c.93.53 1.86-1.21 2.75-1.66zM123 152c-.43-.95-1.27-.47-1.86-1.07.17.14.89.24.68-.3a2.47 2.47 0 0 1-1 .1.83.83 0 0 0-.1-.59 18.59 18.59 0 0 0-2.54-.48c-.6 1.06-2.43-.83-3 .48.4.16 1 .08 1.17.49-.37.08.08.54-.29.49.08.47.58.52.68 1-1.18.4-2.1-.06-3.12-.2-.15.26-.36.38-.2.69.61-.12.51.46 1 .49.38-.63 4-.49 3.32.87a2 2 0 0 0 1-1.36c.27.26.41-.16.68-.2v.4c1-.09 1.2-.67 2.64-.4.23.13.1.62.48.58-.32-.54.55-.41.49-1zm277.44.49c.6-.53.55-1.72 1.18-2.44-.31-1.25-1.43-.23-2.24-.58a.74.74 0 0 1-.69.29c.09.74-.67.63-.77 1.18a5.68 5.68 0 0 1 .29 1.26 6.45 6.45 0 0 0 1.76.59c0-.44.25-.38.48-.3zm15.64-6.44a19.59 19.59 0 0 0 .69-5.57c-2.67-.94-2.77 5-.69 5.57zm-173.2-30.18c0-.15.22-.07.3 0a1.11 1.11 0 0 0 .29-.58 1 1 0 0 1 .69.2c.23-1.47.55-2.43 0-3.72-.29 0-.3-.22-.59-.2-.24.4-.89 1-1.36.58a1.46 1.46 0 0 0-.1.69.67.67 0 0 1 .29 1.07c0 .35.26 0 .29.2a2.91 2.91 0 0 0-.29 1.56c.4-.31.15 0 .48.2zm196-8.11c-.32-.08-.21.26-.4.3a3.23 3.23 0 0 1-1.36-2 1.43 1.43 0 0 1-.39.79c-2.29-.41-3.92-1.73-5.77-2.84.08.33-.2.16-.29.1a10.54 10.54 0 0 1 1.95 4c-.4.18-1-.32-1.46-.2 0 .39.46.33.59.59a.81.81 0 0 1-.59.48 7.13 7.13 0 0 0 1.86 2.34 1.55 1.55 0 0 0 .2-.68c.15 0 .63.26.78-.1-.48-.56-1.78-.31-1.85-1.28a.87.87 0 0 1 .87.4c.41 0 .37-.48.79-.49 1.07.34 2 .84 3 1.19-.93-1.86.93-1.84 2-2.15a1.51 1.51 0 0 1 .1-.49zm-383-11.62c.3.07.29-.17.58-.1-.07.33.2.16.29.1 0 .2-.27.13-.19.4a2.36 2.36 0 0 1 .68 0 .26.26 0 0 0 0 .38.64.64 0 0 0-.49.4 1.13 1.13 0 0 0 .69 0c-.17.36 0 .19.19.39a1.47 1.47 0 0 1-.29.2c.3.49.61-.08 1 .3a.54.54 0 0 0-.4.1 2.11 2.11 0 0 0 2.25.78v-1.57a1.38 1.38 0 0 1-.78-.39c.28-.39 0-.93.19-1.47-1.33.17-2.72-1.64-3.61-.39a1 1 0 0 0 .3.3 4.7 4.7 0 0 1-.39.58zM108 55c.12.32-.32.08-.19.4a2.81 2.81 0 0 0 2-.78c0 .25-.18.31.1.38 1-.32 1.58-.9 2.54-.87a.79.79 0 0 0-.78.48c1 .3 1.59-.55 2.73-.39.1-.41.24-.34.68-.49a.29.29 0 0 1-.19-.2c.45-.06.88-.15 1.37-.2-3.12-.78-7.16.91-10.36 1.56.64 0-.11.06-.1.3 1-.23 1.71.07 2.25-.2z" transform="translate(-13.11 -45.82)" fill-rule="evenodd" fill="url(#a)" filter="url(#b)"/></svg>