<svg data-name="Layer 1" xmlns="http://www.w3.org/2000/svg" width="20" height="20" viewBox="0 0 25 25"><defs><filter id="a" x="-100" y="-100" width="400" height="400"><feGaussianBlur stdDeviation="1" in="SourceGraphic"/><feComponentTransfer><feFuncA type="linear" slope=".35"/></feComponentTransfer></filter></defs><title>pins</title><path d="M15.08 13c4 0 5.95 1.13 4.38 2.52S7.21 20 7.21 20 3.47 16.91 5 15.52 11.1 13 15.08 13z" filter="url(#a)"/><path d="M7.21 0a7.2 7.2 0 0 1 7.21 7.19c0 4-7.21 12.8-7.21 12.8S0 11.17 0 7.2A7.2 7.2 0 0 1 7.2 0z" fill="#00b2e1"/><path d="M8.21 3h-2v2.9H3.6v1.94h2.62v3h2v-3h2.61v-2H8.21V3z"/></svg>