<svg id="Layer_1" data-name="Layer 1" xmlns="http://www.w3.org/2000/svg" viewBox="0 0 238.24 31"><defs><style>.cls-1{fill:#fff;}</style></defs><title>ae_logo</title><path class="cls-1" d="M236.71,19.35c0-3.23-2.31-4.37-6-5.46-3.25-.93-4.11-1.55-4.11-2.82s0.94-2.25,3.14-2.25a9.07,9.07,0,0,1,4.1,1.54,0.43,0.43,0,0,0,.53,0l1.48-1.44a0.39,0.39,0,0,0-.06-0.55,8.58,8.58,0,0,0-5.83-2.17c-3.47,0-6.21,1.91-6.21,5s1.91,4.19,5.89,5.33c3.14,0.91,4.25,1.61,4.25,3,0,1.76-1.26,2.64-3.9,2.64-2.16,0-4.62-1.94-4.62-1.94a0.41,0.41,0,0,0-.52,0l-1.45,1.36a0.43,0.43,0,0,0,0,.65,8.92,8.92,0,0,0,6.36,2.57c4.81,0,7-2.22,7-5.49" transform="translate(-1.67)"/><path class="cls-1" d="M221.26,25c0.19,0,.26-0.35.17-0.52l-6.38-11.07a0.62,0.62,0,0,1,0-.61l5.07-6.3c0.12-.14.06-0.51-0.12-0.51h-2.52a1.21,1.21,0,0,0-.56.48L211.63,13c-0.62.75-1.86,2.31-2.18,2.77,0-.57.3-2.84,0.3-2.84,0-.19.25-0.47,0.25-0.66V6.78A1.68,1.68,0,0,0,209.16,6H207.1a1,1,0,0,0-.1.78V24.22a1,1,0,0,0,.1.78h2.06a1.69,1.69,0,0,0,.84-0.78V19.67a1,1,0,0,1,0-.6l2.93-3.55c0.12-.14.24-0.13,0.33,0l5,8.93a1,1,0,0,0,.48.52h2.52Z" transform="translate(-1.67)"/><path class="cls-1" d="M200,11.92c0,2.33-2.86,2.93-2.86,2.93a4.77,4.77,0,0,1-.68.15h-4.8a0.86,0.86,0,0,1-.61-0.52V9.34A0.69,0.69,0,0,1,191.61,9h5.14c1.91,0,3.2,1,3.2,2.92m2.85-.29c0-5.41-5.71-5.63-5.71-5.63h-8.25c-0.19,0,.15.59,0.15,0.78V24.22c0,0.19-.34.78-0.15,0.78h2.09a1,1,0,0,0,.07-0.78V17.73a1.2,1.2,0,0,1,.61-0.73h3.57a0.9,0.9,0,0,1,.5.5l3.42,6.88a1.22,1.22,0,0,0,.5.62h2.58c0.19,0,.27-0.36.18-0.52l-3.69-7.32a5.41,5.41,0,0,0,4.14-5.52M181.89,15.5c0,4.06-1.8,6.63-5.11,6.63s-5.08-2.56-5.08-6.63,1.8-6.63,5.08-6.63,5.11,2.56,5.11,6.63m2.88,0c0-5.49-3.09-9.35-8-9.35s-8,3.86-8,9.35,3.09,9.34,8,9.34,8-3.86,8-9.34" transform="translate(-1.67)"/><path class="cls-1" d="M166.91,6.55A0.5,0.5,0,0,0,166.64,6h-2.06a0.73,0.73,0,0,0-.41.55L162,18c-0.08.44-.24,1.5-0.38,2.18-0.11-.65-0.38-1.74-0.38-1.74L161,17.82,158.14,6.54A0.75,0.75,0,0,0,157.72,6H156a0.77,0.77,0,0,0-.43.55L152.63,17.8c-0.13.54-.4,1.81-0.51,2.41-0.08-.6-0.36-2-0.36-2l-0.13-.65-2.13-11A0.71,0.71,0,0,0,149.09,6h-2.17a0.49,0.49,0,0,0-.27.55l3.7,17.78a1,1,0,0,0,.41.66h2.12a0.77,0.77,0,0,0,.43-0.55l3-11.48c0.16-.62.46-2,0.54-2.46,0.08,0.44.46,2,.46,2,0,0.18.12,0.47,0.16,0.65l2.76,11.25a0.76,0.76,0,0,0,.43.54h2.17a0.94,0.94,0,0,0,.41-0.66Z" transform="translate(-1.67)"/><path class="cls-1" d="M143.66,9c0.19,0,.34,0,0.34-0.24v-2A1,1,0,0,0,143.66,6H130.55a1.2,1.2,0,0,0-.55.78v2C130,9,130.36,9,130.55,9h4.8a0.83,0.83,0,0,1,.65.44V24.22a1,1,0,0,0,0,.78h2.14a1.67,1.67,0,0,0,.82-0.78V9.44c0-.19-0.33-0.44-0.14-0.44h4.8Z" transform="translate(-1.67)"/><path class="cls-1" d="M127.18,25a1.66,1.66,0,0,0,.82-0.78v-2a1.08,1.08,0,0,0-.82-0.26h-9C118,22,118,21.77,118,21.58v-5c0-.19,0-0.54.16-0.54h4.72c0.19,0,.12,0,0.12-0.14v-2c0-.19.06,0.1-0.12,0.1h-4.72a1,1,0,0,1-.16-0.79V9.42c0-.19,0-0.42.16-0.42h8.62C127,9,127,8.92,127,8.74v-2A1,1,0,0,0,126.78,6H115.33a1,1,0,0,0-.33.78V24.22a1,1,0,0,0,.33.78h11.85Z" transform="translate(-1.67)"/><path class="cls-1" d="M110.57,25a1.09,1.09,0,0,0,.43-0.78V6.78A1.08,1.08,0,0,0,110.57,6h-2.06a1.15,1.15,0,0,0-.51.78v9c0,1,.11,3.6.11,4.27-0.27-.47-1.34-2.27-1.34-2.27-0.1-.16-0.24-0.42-0.34-0.58L99.66,6.51A1,1,0,0,0,99.14,6h-2.2a1.15,1.15,0,0,0,.05.78V24.22a1.16,1.16,0,0,0-.05.78H99a1.11,1.11,0,0,0,0-.78V15.16c0-1,.15-3.52.15-4.19,0.29,0.47,1.3,1.94,1.3,1.94,0.1,0.16.31,0.42,0.41,0.57l7.15,11a1.12,1.12,0,0,0,.55.51h2Z" transform="translate(-1.67)"/><path class="cls-1" d="M73,25a1.14,1.14,0,0,1-1-.89V18.76A1,1,0,0,1,73,18H83.3a0.75,0.75,0,0,0,.7-0.83V12.54C84,12.1,83.74,12,83.3,12H73a1.31,1.31,0,0,1-1-1.05V6.5c0-.44.61-0.5,1-0.5h14.5C88,6,88,5.34,88,4.91v-4C88,0.42,88,0,87.55,0H66.35C65.91,0,66,.42,66,0.86V29.74c0,0.44-.09,1.26.35,1.26H87.89A1.64,1.64,0,0,0,89,29.74v-4a1.06,1.06,0,0,0-1.11-.7H73Z" transform="translate(-1.67)"/><path class="cls-1" d="M19.57,17.07A0.68,0.68,0,0,1,19,18H13.51A0.67,0.67,0,0,1,13,17.07l3-8.65a6,6,0,0,1,.31-0.79,7.17,7.17,0,0,1,.3.82ZM30.43,31a0.7,0.7,0,0,0,.52-1L20.11,0.89A1.4,1.4,0,0,0,19,0H13.75a1.27,1.27,0,0,0-1.08.78L1.72,30a0.72,0.72,0,0,0,.51,1H7.38a1.48,1.48,0,0,0,1.06-1l1.82-5.22a1.25,1.25,0,0,1,1.06-.8h9.89a1.13,1.13,0,0,1,1.05.69L24,30a1.42,1.42,0,0,0,1.05,1h5.37Z" transform="translate(-1.67)"/><path class="cls-1" d="M32,17.58C32,18,32,18,32.43,18h8.42c0.44,0,1.15,0,1.15-.42V12.94A1.31,1.31,0,0,0,40.85,12H32.43C32,12,32,12.5,32,12.94v4.64Z" transform="translate(-1.67)"/><path class="cls-1" d="M51,17.58C51,18,51.49,18,51.93,18h8.35c0.44,0,.73,0,0.73-0.42V12.94A0.88,0.88,0,0,0,60.27,12H51.93a1.06,1.06,0,0,0-.93.94v4.63Z" transform="translate(-1.67)"/><path class="cls-1" d="M43,9.51c0,0.44.63,0.49,1.07,0.49H48.7c0.44,0,.3-0.05.3-0.49V1.16C49,0.73,49.14,0,48.7,0H44.07A1.46,1.46,0,0,0,43,1.16V9.51Z" transform="translate(-1.67)"/><path class="cls-1" d="M43,29.19a1.09,1.09,0,0,0,1.07.81H48.7c0.44,0,.3-0.38.3-0.81V20.84c0-.44.14-0.84-0.3-0.84H44.07a1.11,1.11,0,0,0-1.07.84v8.35Z" transform="translate(-1.67)"/><path class="cls-1" d="M238.62,24.69a1.29,1.29,0,1,1,1.29-1.29A1.27,1.27,0,0,1,238.62,24.69Zm0-2.36a1.06,1.06,0,1,0,1.06,1.06A1,1,0,0,0,238.62,22.33ZM239,23.52l0.27,0.55h-0.33l-0.25-.51H238.4v0.51h-0.3V22.67h0.66a0.43,0.43,0,0,1,.48.44A0.4,0.4,0,0,1,239,23.52Zm-0.23-.58H238.4V23.3h0.34a0.17,0.17,0,0,0,.2-0.18A0.17,0.17,0,0,0,238.73,22.94Z" transform="translate(-1.67)"/></svg>