<svg xmlns="http://www.w3.org/2000/svg" width="250" height="116" viewBox="0 0 250 116">
  <defs>
    <style>
      .cls-1 {
        fill: #fff;
        fill-rule: evenodd;
      }
    </style>
  </defs>
  <path id="ATTWN_Logo" data-name="ATTWN Logo" class="cls-1" d="M92.684,55.96H88.032l-1.21,2.62H85.055l5.377-11.466L95.618,58.58H93.824Zm-0.669-1.53L90.4,50.761l-1.689,3.668h3.3Zm4.961,4.15V47.058l7.924,8.231v-7.5h1.64V59.237l-7.924-8.21V58.58h-1.64Zm12.168,0V47.792h2.28a8.367,8.367,0,0,1,2.59.321,4.861,4.861,0,0,1,1.851,1.069,5.4,5.4,0,0,1-1.915,9.1,8.451,8.451,0,0,1-2.554.3h-2.252Zm1.64-1.53h0.738a6.207,6.207,0,0,0,1.837-.231,3.733,3.733,0,0,0,1.323-.775,3.677,3.677,0,0,0,1.211-2.858,3.735,3.735,0,0,0-1.2-2.879,4.55,4.55,0,0,0-3.174-.985h-0.738V57.05Zm16.27-7.728V58.58h-1.64V49.322h-2.5v-1.53h6.629v1.53h-2.491Zm5.594,2.69h4.687v-4.22h1.64V58.58h-1.64V53.542h-4.687V58.58h-1.639V47.792h1.639v4.22Zm14.927-2.69h-4.356v2.592h4.23v1.53h-4.23V57.05h4.356v1.53h-6V47.792h6v1.53Zm2.153,9.258V47.058l7.924,8.231v-7.5h1.64V59.237l-7.925-8.21V58.58h-1.639Zm43.216-9.258V58.58H191.3V49.322h-2.5v-1.53h6.629v1.53h-2.491Zm5.594,2.69h4.688v-4.22h1.639V58.58h-1.639V53.542h-4.688V58.58H196.9V47.792h1.639v4.22Zm14.926-2.69h-4.356v2.592h4.23v1.53h-4.23V57.05h4.356v1.53h-6V47.792h6v1.53Zm5.835,4.66,3.363,4.6h-2l-3.1-4.416h-0.3V58.58h-1.64V47.792h1.921a4.825,4.825,0,0,1,3.111.8,2.942,2.942,0,0,1,1.055,2.362,3.051,3.051,0,0,1-.661,1.97A2.954,2.954,0,0,1,219.3,53.982Zm-2.041-1.236h0.521q2.329,0,2.329-1.768,0-1.656-2.266-1.656h-0.584v3.424Zm13.033-3.424h-4.356v2.592h4.229v1.53h-4.229V57.05h4.356v1.53h-6V47.792h6v1.53Zm7.135-1.53L240.256,55l2.955-7.735L246.04,55l3-7.211h1.78L245.97,59.264l-2.794-7.644-2.913,7.651-4.617-11.48h1.78Zm20.746,1.53h-4.356v2.592h4.23v1.53h-4.23V57.05h4.356v1.53h-6V47.792h6v1.53Zm5.834,4.66,3.364,4.6h-2.006l-3.1-4.416h-0.3V58.58h-1.639V47.792h1.921a4.822,4.822,0,0,1,3.11.8,2.942,2.942,0,0,1,1.056,2.362,3.052,3.052,0,0,1-.662,1.97A2.948,2.948,0,0,1,264.006,53.982Zm-2.041-1.236h0.521q2.329,0,2.33-1.768,0-1.656-2.267-1.656h-0.584v3.424ZM275,49.322h-4.356v2.592h4.23v1.53h-4.23V57.05H275v1.53h-6V47.792h6v1.53ZM25,136.613V67.006l47.875,49.727v-45.3h9.905v69.144L34.9,90.982v45.631H25ZM91.108,103.73A31.8,31.8,0,0,1,101.27,80.091a33.564,33.564,0,0,1,24.319-9.878,32.941,32.941,0,0,1,24.062,9.962,32.445,32.445,0,0,1,10.075,23.933,31.941,31.941,0,0,1-10.117,23.851,34.874,34.874,0,0,1-47.364,1.1Q91.108,119.391,91.108,103.73Zm9.992,0.1q0,10.8,7.313,17.756a24.355,24.355,0,0,0,34.224-.127,23.882,23.882,0,0,0,7.1-17.46,23.757,23.757,0,0,0-7.018-17.461,23.242,23.242,0,0,0-17.259-7.086A24.145,24.145,0,0,0,101.1,103.835Zm67.209,32.778V33l47.874,80.18V71.437h9.905V149L178.214,67.468v69.145h-9.905ZM274.837,80.682H248.519v15.66h25.555v9.246H248.519v21.781h26.318v9.244H238.614V71.437h36.223v9.245Z" transform="translate(-25 -33)"/>
</svg>
